<svg width="120" height="41" viewBox="0 0 120 41" fill="none" xmlns="http://www.w3.org/2000/svg">
<g clip-path="url(#clip0_12_1147)">
<path d="M110.135 0.500008H9.53468C9.16798 0.500008 8.80568 0.500008 8.43995 0.502008C8.1338 0.504008 7.83009 0.509818 7.521 0.514708C6.84951 0.52261 6.17961 0.581684 5.5171 0.691418C4.85552 0.803541 4.21467 1.01492 3.61622 1.31842C3.0185 1.62448 2.47235 2.02218 1.99757 2.49708C1.5203 2.97064 1.12246 3.51802 0.81935 4.11817C0.5154 4.71712 0.304641 5.35895 0.19435 6.02149C0.0830109 6.68319 0.0230984 7.35253 0.01515 8.02349C0.00587 8.33009 0.00489 8.63771 0 8.94435V32.0586C0.00489 32.3691 0.00587 32.6699 0.01515 32.9805C0.0231008 33.6514 0.0830134 34.3207 0.19435 34.9824C0.304336 35.6453 0.515108 36.2875 0.81935 36.8867C1.12233 37.4849 1.52022 38.0301 1.99757 38.501C2.47054 38.978 3.01705 39.376 3.61622 39.6797C4.21467 39.984 4.85545 40.1967 5.5171 40.3105C6.17972 40.4194 6.84956 40.4785 7.521 40.4873C7.83009 40.4941 8.1338 40.498 8.43995 40.498C8.80567 40.5 9.168 40.5 9.53468 40.5H110.135C110.494 40.5 110.859 40.5 111.219 40.498C111.523 40.498 111.836 40.4941 112.141 40.4873C112.811 40.4789 113.479 40.4198 114.141 40.3105C114.804 40.1959 115.448 39.9833 116.049 39.6797C116.647 39.3758 117.193 38.9779 117.666 38.501C118.142 38.0282 118.541 37.4835 118.848 36.8867C119.15 36.2871 119.358 35.645 119.467 34.9824C119.578 34.3206 119.64 33.6515 119.652 32.9805C119.656 32.6699 119.656 32.3691 119.656 32.0586C119.664 31.6953 119.664 31.334 119.664 30.9648V10.0361C119.664 9.66993 119.664 9.30665 119.656 8.94435C119.656 8.63771 119.656 8.33009 119.652 8.02345C119.64 7.35243 119.578 6.68324 119.467 6.02145C119.358 5.35929 119.149 4.71751 118.848 4.11813C118.23 2.9152 117.252 1.93603 116.049 1.31833C115.448 1.01558 114.804 0.804248 114.141 0.691328C113.48 0.581111 112.811 0.522016 112.141 0.514568C111.836 0.509688 111.523 0.503828 111.219 0.501878C110.859 0.499878 110.494 0.499878 110.135 0.499878V0.500008Z" fill="#A6A6A6"/>
<path d="M8.44487 39.625C8.14019 39.625 7.84287 39.6211 7.54058 39.6143C6.91436 39.6061 6.2896 39.5516 5.67144 39.4512C5.09503 39.3519 4.53664 39.1673 4.0147 38.9033C3.49754 38.6415 3.02585 38.2983 2.6177 37.8867C2.20364 37.48 1.85891 37.0082 1.59719 36.4902C1.33258 35.9688 1.14945 35.4099 1.05419 34.833C0.951311 34.2131 0.895651 33.5863 0.887687 32.958C0.881347 32.7471 0.873047 32.0449 0.873047 32.0449V8.94434C0.873047 8.94434 0.881887 8.25293 0.887737 8.0498C0.895363 7.42248 0.950699 6.79665 1.05327 6.17773C1.14871 5.59925 1.33197 5.03875 1.59673 4.51563C1.85749 3.99794 2.2003 3.52586 2.61187 3.11768C3.02297 2.70562 3.49617 2.3606 4.01421 2.09521C4.53495 1.83209 5.09228 1.64873 5.66753 1.55127C6.28772 1.44984 6.91465 1.395 7.54304 1.38721L8.44536 1.375H111.214L112.127 1.3877C112.75 1.3951 113.371 1.44945 113.985 1.55029C114.566 1.64898 115.13 1.83362 115.656 2.09814C116.694 2.63299 117.539 3.47916 118.071 4.51807C118.332 5.03758 118.512 5.59351 118.607 6.16699C118.71 6.79099 118.768 7.42174 118.78 8.0542C118.783 8.3374 118.783 8.6416 118.783 8.94434C118.791 9.31934 118.791 9.67627 118.791 10.0361V30.9648C118.791 31.3281 118.791 31.6826 118.783 32.04C118.783 32.3652 118.783 32.6631 118.779 32.9697C118.768 33.5909 118.711 34.2104 118.608 34.8232C118.515 35.4043 118.333 35.9675 118.068 36.4932C117.805 37.0056 117.462 37.4733 117.053 37.8789C116.644 38.2927 116.172 38.6379 115.653 38.9014C115.128 39.1674 114.566 39.3527 113.985 39.4512C113.367 39.5522 112.742 39.6067 112.116 39.6143C111.823 39.6211 111.517 39.625 111.219 39.625L110.135 39.627L8.44487 39.625Z" fill="black"/>
<path d="M24.769 20.8007C24.7797 19.966 25.0014 19.1477 25.4135 18.4217C25.8255 17.6957 26.4145 17.0858 27.1256 16.6486C26.6738 16.0035 26.0779 15.4725 25.385 15.098C24.6922 14.7234 23.9216 14.5156 23.1344 14.491C21.4552 14.3147 19.8272 15.4958 18.9715 15.4958C18.0992 15.4958 16.7817 14.5085 15.363 14.5376C14.4453 14.5673 13.551 14.8341 12.7671 15.3122C11.9832 15.7903 11.3365 16.4632 10.8901 17.2655C8.95607 20.6139 10.3987 25.535 12.2513 28.2416C13.1782 29.5669 14.2615 31.0474 15.6789 30.9949C17.066 30.9374 17.584 30.1104 19.2583 30.1104C20.9171 30.1104 21.4031 30.9949 22.8493 30.9615C24.3377 30.9374 25.2754 29.6303 26.1698 28.2924C26.8358 27.348 27.3483 26.3043 27.6882 25.1999C26.8235 24.8341 26.0856 24.222 25.5665 23.4397C25.0474 22.6574 24.77 21.7396 24.769 20.8007Z" fill="white"/>
<path d="M22.0373 12.711C22.8489 11.7367 23.2487 10.4846 23.1518 9.22034C21.912 9.35056 20.7668 9.94312 19.9443 10.8799C19.5421 11.3376 19.2341 11.87 19.0379 12.4468C18.8416 13.0236 18.761 13.6334 18.8006 14.2413C19.4207 14.2477 20.0342 14.1133 20.5949 13.8482C21.1555 13.5831 21.6487 13.1943 22.0373 12.711Z" fill="white"/>
<path d="M42.3025 27.6397H37.5691L36.4324 30.9961H34.4275L38.9109 18.5781H40.9939L45.4773 30.9961H43.4382L42.3025 27.6397ZM38.0593 26.0908H41.8113L39.9617 20.6436H39.91L38.0593 26.0908Z" fill="white"/>
<path d="M55.1599 26.4698C55.1599 29.2833 53.6541 31.0909 51.3816 31.0909C50.806 31.121 50.2335 30.9884 49.7297 30.7083C49.2259 30.4281 48.8112 30.0118 48.533 29.5069H48.49V33.9913H46.6316V21.9425H48.4305V23.4483H48.4646C48.7556 22.9459 49.1773 22.5317 49.6849 22.2498C50.1926 21.968 50.7671 21.829 51.3474 21.8477C53.6453 21.8477 55.1599 23.6641 55.1599 26.4698ZM53.2498 26.4698C53.2498 24.6368 52.3025 23.4317 50.8572 23.4317C49.4373 23.4317 48.4822 24.6622 48.4822 26.4698C48.4822 28.294 49.4373 29.5157 50.8572 29.5157C52.3025 29.5157 53.2498 28.3194 53.2498 26.4698Z" fill="white"/>
<path d="M65.1248 26.4698C65.1248 29.2833 63.6189 31.0909 61.3465 31.0909C60.7708 31.121 60.1983 30.9884 59.6945 30.7083C59.1907 30.4281 58.776 30.0118 58.4978 29.5069H58.4548V33.9913H56.5964V21.9425H58.3953V23.4483H58.4294C58.7204 22.9459 59.1421 22.5317 59.6498 22.2498C60.1574 21.968 60.7319 21.829 61.3123 21.8477C63.6101 21.8477 65.1248 23.6641 65.1248 26.4698ZM63.2146 26.4698C63.2146 24.6368 62.2674 23.4317 60.822 23.4317C59.4021 23.4317 58.447 24.6622 58.447 26.4698C58.447 28.294 59.4021 29.5157 60.822 29.5157C62.2674 29.5157 63.2146 28.3194 63.2146 26.4698H63.2146Z" fill="white"/>
<path d="M71.7107 27.5362C71.8484 28.7676 73.0447 29.5762 74.6795 29.5762C76.2459 29.5762 77.3728 28.7676 77.3728 27.6572C77.3728 26.6934 76.6931 26.1162 75.0838 25.7207L73.4744 25.333C71.1941 24.7822 70.1355 23.7158 70.1355 21.9854C70.1355 19.8428 72.0027 18.3711 74.6541 18.3711C77.2781 18.3711 79.0769 19.8428 79.1375 21.9854H77.2615C77.1492 20.7461 76.1248 19.9981 74.6277 19.9981C73.1306 19.9981 72.1062 20.7549 72.1062 21.8565C72.1062 22.7344 72.7605 23.251 74.3611 23.6465L75.7292 23.9824C78.2771 24.5849 79.3357 25.6084 79.3357 27.4248C79.3357 29.748 77.4851 31.2031 74.5417 31.2031C71.7878 31.2031 69.9285 29.7822 69.8083 27.5361L71.7107 27.5362Z" fill="white"/>
<path d="M83.3464 19.7998V21.9424H85.0681V23.4141H83.3464V28.4053C83.3464 29.1807 83.6912 29.542 84.448 29.542C84.6524 29.5384 84.8564 29.5241 85.0593 29.499V30.9619C84.719 31.0255 84.3732 31.0543 84.0271 31.0478C82.1941 31.0478 81.4792 30.3593 81.4792 28.6035V23.4141H80.1628V21.9424H81.4792V19.7998H83.3464Z" fill="white"/>
<path d="M86.0652 26.4697C86.0652 23.6211 87.7429 21.8311 90.3591 21.8311C92.9841 21.8311 94.6541 23.6211 94.6541 26.4697C94.6541 29.3262 92.9929 31.1084 90.3591 31.1084C87.7263 31.1084 86.0652 29.3262 86.0652 26.4697ZM92.7605 26.4697C92.7605 24.5156 91.865 23.3623 90.3591 23.3623C88.8533 23.3623 87.9587 24.5244 87.9587 26.4697C87.9587 28.4316 88.8533 29.5762 90.3591 29.5762C91.865 29.5762 92.7605 28.4316 92.7605 26.4697H92.7605Z" fill="white"/>
<path d="M96.1863 21.9424H97.9587V23.4834H98.0017C98.1217 23.0021 98.4036 22.5768 98.8002 22.2789C99.1968 21.981 99.6838 21.8287 100.179 21.8476C100.394 21.8469 100.607 21.8702 100.816 21.917V23.6553C100.546 23.5726 100.264 23.5347 99.9812 23.543C99.7112 23.532 99.4421 23.5796 99.1922 23.6825C98.9424 23.7854 98.7178 23.9411 98.5338 24.139C98.3498 24.3369 98.2108 24.5723 98.1264 24.8289C98.042 25.0856 98.0141 25.3575 98.0447 25.626V30.9961H96.1863L96.1863 21.9424Z" fill="white"/>
<path d="M109.385 28.3369C109.135 29.9805 107.534 31.1084 105.486 31.1084C102.852 31.1084 101.218 29.3437 101.218 26.5127C101.218 23.6729 102.861 21.8311 105.408 21.8311C107.913 21.8311 109.488 23.5518 109.488 26.2969V26.9336H103.094V27.0459C103.064 27.3791 103.106 27.7148 103.216 28.0306C103.326 28.3464 103.502 28.6352 103.733 28.8778C103.963 29.1203 104.242 29.3111 104.552 29.4374C104.862 29.5637 105.195 29.6226 105.529 29.6103C105.968 29.6515 106.409 29.5498 106.786 29.3203C107.162 29.0909 107.455 28.746 107.62 28.3369L109.385 28.3369ZM103.102 25.6348H107.629C107.645 25.3352 107.6 25.0354 107.495 24.7541C107.391 24.4729 107.229 24.2164 107.02 24.0006C106.812 23.7849 106.561 23.6145 106.284 23.5003C106.006 23.3861 105.708 23.3305 105.408 23.3369C105.105 23.3351 104.805 23.3933 104.525 23.508C104.245 23.6227 103.991 23.7918 103.776 24.0054C103.562 24.2191 103.392 24.473 103.276 24.7527C103.161 25.0323 103.102 25.3321 103.102 25.6348V25.6348Z" fill="white"/>
<path d="M37.8262 9.23101C38.2158 9.20305 38.6067 9.26191 38.9709 9.40335C39.335 9.54478 39.6632 9.76526 39.9317 10.0489C40.2003 10.3325 40.4026 10.6722 40.524 11.0435C40.6454 11.4148 40.6829 11.8083 40.6338 12.1959C40.6338 14.1021 39.6035 15.1979 37.8262 15.1979H35.6709V9.23101H37.8262ZM36.5976 14.354H37.7226C38.0011 14.3707 38.2797 14.325 38.5382 14.2204C38.7967 14.1158 39.0287 13.9548 39.2172 13.7493C39.4057 13.5437 39.546 13.2987 39.6278 13.0321C39.7097 12.7655 39.7311 12.4839 39.6904 12.208C39.7281 11.9332 39.7046 11.6534 39.6215 11.3887C39.5383 11.1241 39.3977 10.8811 39.2096 10.6771C39.0216 10.4732 38.7907 10.3134 38.5337 10.2092C38.2766 10.1049 37.9996 10.0589 37.7226 10.0742H36.5976V14.354Z" fill="white"/>
<path d="M41.6807 12.9444C41.6524 12.6485 41.6862 12.3499 41.7801 12.0679C41.8739 11.7858 42.0257 11.5264 42.2256 11.3065C42.4256 11.0865 42.6693 10.9107 42.9411 10.7904C43.213 10.6702 43.507 10.608 43.8042 10.608C44.1015 10.608 44.3955 10.6702 44.6673 10.7904C44.9392 10.9107 45.1829 11.0865 45.3828 11.3065C45.5828 11.5264 45.7345 11.7858 45.8284 12.0679C45.9222 12.3499 45.9561 12.6485 45.9278 12.9444C45.9566 13.2406 45.9232 13.5396 45.8296 13.8221C45.736 14.1047 45.5843 14.3645 45.3843 14.5849C45.1843 14.8053 44.9404 14.9814 44.6683 15.102C44.3962 15.2225 44.1019 15.2848 43.8042 15.2848C43.5066 15.2848 43.2123 15.2225 42.9402 15.102C42.668 14.9814 42.4241 14.8053 42.2241 14.5849C42.0242 14.3645 41.8725 14.1047 41.7789 13.8221C41.6853 13.5396 41.6519 13.2406 41.6807 12.9444ZM45.0137 12.9444C45.0137 11.9683 44.5752 11.3975 43.8057 11.3975C43.0332 11.3975 42.5987 11.9683 42.5987 12.9444C42.5987 13.9283 43.0333 14.4947 43.8057 14.4947C44.5752 14.4947 45.0137 13.9244 45.0137 12.9444H45.0137Z" fill="white"/>
<path d="M51.5732 15.1978H50.6514L49.7207 11.8813H49.6504L48.7236 15.1978H47.8105L46.5693 10.6948H47.4707L48.2773 14.1308H48.3438L49.2695 10.6948H50.1221L51.0479 14.1308H51.1182L51.9209 10.6948H52.8096L51.5732 15.1978Z" fill="white"/>
<path d="M53.8535 10.6949H54.709V11.4102H54.7754C54.888 11.1533 55.0781 10.9379 55.3189 10.7941C55.5598 10.6503 55.8395 10.5852 56.1191 10.6079C56.3382 10.5915 56.5582 10.6245 56.7628 10.7046C56.9674 10.7847 57.1514 10.9098 57.3011 11.0707C57.4508 11.2315 57.5623 11.424 57.6275 11.6338C57.6927 11.8436 57.7099 12.0654 57.6777 12.2827V15.1977H56.7891V12.5059C56.7891 11.7823 56.4746 11.4224 55.8174 11.4224C55.6686 11.4155 55.5201 11.4408 55.3821 11.4966C55.244 11.5525 55.1197 11.6375 55.0175 11.7459C54.9154 11.8543 54.8379 11.9834 54.7904 12.1246C54.7429 12.2657 54.7264 12.4154 54.7422 12.5635V15.1978H53.8535L53.8535 10.6949Z" fill="white"/>
<path d="M59.0938 8.93701H59.9824V15.1978H59.0938V8.93701Z" fill="white"/>
<path d="M61.2178 12.9444C61.1895 12.6484 61.2234 12.3499 61.3172 12.0678C61.4111 11.7857 61.5629 11.5263 61.7628 11.3064C61.9628 11.0864 62.2065 10.9106 62.4784 10.7903C62.7503 10.67 63.0443 10.6079 63.3416 10.6079C63.6389 10.6079 63.9329 10.67 64.2047 10.7903C64.4766 10.9106 64.7203 11.0864 64.9203 11.3064C65.1203 11.5263 65.272 11.7857 65.3659 12.0678C65.4598 12.3499 65.4936 12.6484 65.4653 12.9444C65.4942 13.2406 65.4607 13.5396 65.3671 13.8221C65.2734 14.1046 65.1217 14.3645 64.9217 14.5849C64.7217 14.8053 64.4778 14.9814 64.2057 15.1019C63.9335 15.2225 63.6392 15.2847 63.3416 15.2847C63.0439 15.2847 62.7496 15.2225 62.4775 15.1019C62.2053 14.9814 61.9614 14.8053 61.7614 14.5849C61.5614 14.3645 61.4097 14.1046 61.3161 13.8221C61.2225 13.5396 61.189 13.2406 61.2178 12.9444ZM64.5508 12.9444C64.5508 11.9683 64.1123 11.3975 63.3428 11.3975C62.5703 11.3975 62.1358 11.9683 62.1358 12.9444C62.1358 13.9283 62.5704 14.4947 63.3428 14.4947C64.1123 14.4947 64.5508 13.9244 64.5508 12.9444H64.5508Z" fill="white"/>
<path d="M66.4009 13.9243C66.4009 13.1138 67.0044 12.6465 68.0757 12.5801L69.2954 12.5098V12.1211C69.2954 11.6455 68.981 11.377 68.3735 11.377C67.8774 11.377 67.5337 11.5591 67.4351 11.8774H66.5747C66.6655 11.104 67.3931 10.6079 68.4146 10.6079C69.5435 10.6079 70.1802 11.1699 70.1802 12.1211V15.1978H69.3247V14.5649H69.2544C69.1117 14.7919 68.9113 14.977 68.6737 15.1012C68.436 15.2254 68.1697 15.2843 67.9019 15.2719C67.7128 15.2916 67.5218 15.2714 67.341 15.2127C67.1602 15.154 66.9938 15.0581 66.8524 14.9311C66.711 14.8042 66.5977 14.649 66.52 14.4756C66.4422 14.3021 66.4016 14.1144 66.4009 13.9243ZM69.2954 13.5395V13.1631L68.1958 13.2334C67.5757 13.2749 67.2944 13.4858 67.2944 13.8828C67.2944 14.2881 67.646 14.5239 68.1294 14.5239C68.2711 14.5382 68.4142 14.5239 68.5502 14.4819C68.6862 14.4398 68.8123 14.3707 68.9211 14.2789C69.0299 14.1871 69.1191 14.0743 69.1834 13.9473C69.2477 13.8202 69.2858 13.6816 69.2954 13.5395Z" fill="white"/>
<path d="M71.3481 12.9444C71.3481 11.5215 72.0796 10.6201 73.2173 10.6201C73.4987 10.6072 73.778 10.6746 74.0225 10.8145C74.267 10.9544 74.4667 11.161 74.5981 11.4101H74.6646V8.93701H75.5532V15.1978H74.7017V14.4863H74.6314C74.4897 14.7338 74.2831 14.9378 74.0339 15.0763C73.7846 15.2148 73.5022 15.2825 73.2173 15.272C72.0718 15.272 71.3481 14.3706 71.3481 12.9444ZM72.2661 12.9444C72.2661 13.8994 72.7163 14.4741 73.4693 14.4741C74.2183 14.4741 74.6812 13.8911 74.6812 12.9483C74.6812 12.0098 74.2134 11.4185 73.4693 11.4185C72.7212 11.4185 72.2661 11.9971 72.2661 12.9444H72.2661Z" fill="white"/>
<path d="M79.23 12.9444C79.2017 12.6485 79.2356 12.3499 79.3294 12.0679C79.4232 11.7858 79.575 11.5264 79.7749 11.3065C79.9749 11.0865 80.2186 10.9107 80.4904 10.7904C80.7623 10.6702 81.0563 10.608 81.3536 10.608C81.6508 10.608 81.9448 10.6702 82.2167 10.7904C82.4885 10.9107 82.7322 11.0865 82.9322 11.3065C83.1321 11.5264 83.2839 11.7858 83.3777 12.0679C83.4715 12.3499 83.5054 12.6485 83.4771 12.9444C83.5059 13.2406 83.4725 13.5396 83.3789 13.8221C83.2853 14.1047 83.1336 14.3645 82.9336 14.5849C82.7336 14.8053 82.4897 14.9814 82.2176 15.102C81.9455 15.2225 81.6512 15.2848 81.3536 15.2848C81.0559 15.2848 80.7616 15.2225 80.4895 15.102C80.2173 14.9814 79.9735 14.8053 79.7735 14.5849C79.5735 14.3645 79.4218 14.1047 79.3282 13.8221C79.2346 13.5396 79.2012 13.2406 79.23 12.9444ZM82.563 12.9444C82.563 11.9683 82.1245 11.3975 81.355 11.3975C80.5826 11.3975 80.148 11.9683 80.148 12.9444C80.148 13.9283 80.5826 14.4947 81.355 14.4947C82.1245 14.4947 82.563 13.9244 82.563 12.9444Z" fill="white"/>
<path d="M84.6694 10.6949H85.5249V11.4102H85.5913C85.704 11.1533 85.894 10.9379 86.1348 10.7941C86.3757 10.6503 86.6555 10.5852 86.9351 10.6079C87.1542 10.5915 87.3742 10.6245 87.5788 10.7046C87.7834 10.7847 87.9673 10.9098 88.117 11.0707C88.2667 11.2315 88.3783 11.424 88.4435 11.6338C88.5087 11.8436 88.5258 12.0654 88.4937 12.2827V15.1977H87.605V12.5059C87.605 11.7823 87.2905 11.4224 86.6333 11.4224C86.4846 11.4155 86.336 11.4408 86.198 11.4966C86.0599 11.5525 85.9356 11.6375 85.8335 11.7459C85.7313 11.8543 85.6539 11.9834 85.6063 12.1246C85.5588 12.2657 85.5423 12.4154 85.5581 12.5635V15.1978H84.6694V10.6949Z" fill="white"/>
<path d="M93.5151 9.57373V10.7153H94.4907V11.4639H93.5151V13.7793C93.5151 14.251 93.7095 14.4575 94.1519 14.4575C94.2651 14.4572 94.3783 14.4503 94.4907 14.437V15.1772C94.3311 15.2058 94.1694 15.221 94.0073 15.2226C93.019 15.2226 92.6255 14.875 92.6255 14.0068V11.4638H91.9106V10.7153H92.6255V9.57373H93.5151Z" fill="white"/>
<path d="M95.7046 8.93701H96.5854V11.4185H96.6558C96.7739 11.1591 96.9691 10.9425 97.2148 10.7982C97.4605 10.6539 97.7447 10.5888 98.0288 10.6118C98.2467 10.6 98.4646 10.6364 98.6669 10.7184C98.8692 10.8004 99.0508 10.9261 99.199 11.0864C99.3471 11.2468 99.458 11.4378 99.5238 11.646C99.5896 11.8541 99.6086 12.0742 99.5795 12.2905V15.1978H98.69V12.5098C98.69 11.7905 98.355 11.4263 97.7271 11.4263C97.5743 11.4137 97.4207 11.4347 97.2769 11.4878C97.1332 11.5408 97.0027 11.6247 96.8947 11.7334C96.7867 11.8421 96.7038 11.9732 96.6517 12.1173C96.5997 12.2614 96.5797 12.4152 96.5933 12.5679V15.1977H95.7046L95.7046 8.93701Z" fill="white"/>
<path d="M104.761 13.9819C104.64 14.3934 104.379 14.7494 104.022 14.9876C103.665 15.2257 103.236 15.3309 102.81 15.2846C102.513 15.2924 102.218 15.2356 101.946 15.1181C101.673 15.0006 101.43 14.8251 101.232 14.604C101.034 14.3829 100.887 14.1213 100.8 13.8375C100.713 13.5537 100.689 13.2544 100.73 12.9604C100.69 12.6655 100.715 12.3656 100.801 12.0809C100.888 11.7962 101.034 11.5335 101.231 11.3104C101.428 11.0873 101.671 10.9092 101.942 10.7879C102.214 10.6667 102.509 10.6053 102.806 10.6079C104.059 10.6079 104.815 11.4639 104.815 12.8779V13.188H101.635V13.2378C101.621 13.403 101.642 13.5693 101.696 13.7261C101.75 13.8828 101.837 14.0265 101.949 14.148C102.062 14.2694 102.199 14.366 102.352 14.4314C102.504 14.4968 102.669 14.5296 102.834 14.5278C103.047 14.5533 103.262 14.515 103.453 14.4178C103.644 14.3206 103.801 14.1688 103.906 13.9819L104.761 13.9819ZM101.635 12.5307H103.91C103.921 12.3796 103.9 12.2278 103.849 12.0851C103.798 11.9423 103.718 11.8119 103.614 11.702C103.509 11.5922 103.383 11.5053 103.243 11.4472C103.103 11.389 102.953 11.3607 102.801 11.3642C102.647 11.3623 102.495 11.3911 102.353 11.4491C102.21 11.507 102.081 11.5929 101.972 11.7016C101.864 11.8103 101.778 11.9397 101.72 12.0821C101.662 12.2245 101.633 12.377 101.635 12.5307H101.635Z" fill="white"/>
</g>
<defs>
<clipPath id="clip0_12_1147">
<rect width="119.664" height="40" fill="white" transform="translate(0 0.5)"/>
</clipPath>
</defs>
</svg>
