<svg width="200" height="134" viewBox="0 0 200 134" fill="none" xmlns="http://www.w3.org/2000/svg">
<path d="M93.0198 66.3775C97.8803 64.7599 98.7613 60.6808 98.7516 57.3558C98.7418 52.2725 95.157 47.8828 84.5469 47.8828L64.7394 47.8789V86.0406H84.4922C95.1687 86.0406 99.0955 80.5606 99.0955 75.071C99.0955 68.423 93.0198 66.3775 93.0198 66.3775ZM74.1402 56.1817H87.4754L87.5223 56.1914C89.0266 56.4571 90.1225 57.7368 90.1225 59.2371C90.1225 60.7746 88.9485 62.2223 87.3973 62.4332L74.1459 62.4547L74.1402 56.1817ZM86.8326 77.1457H74.1402V70.7595H87.1433L87.1726 70.7634C88.7901 70.947 90.017 72.293 90.017 73.8892C90.017 75.6337 88.5656 77.1223 86.8326 77.1457ZM143.446 47.8867H176.915L176.896 56.213H152.747L152.771 62.3648H174.542V70.736H152.771V77.3919H176.923L176.917 86.1206H143.446M123.978 47.9336H103.739V86.1089H113.032V70.6618L123.269 70.652C126.2 70.697 128.48 73.096 128.48 76.0577V86.0737L137.575 86.0698L137.56 73.7524C137.56 68.044 132.045 66.3561 132.045 66.3561C132.045 66.3561 137.683 64.6721 137.683 57.9243C137.683 49.6664 130.589 47.9336 123.978 47.9336ZM129.052 59.7763C128.884 61.0324 127.63 62.3942 126.063 62.3942L112.999 62.3981V56.2872H126.067C127.63 56.2872 128.853 57.4339 129.052 58.9441M58.7145 76.8841C58.5837 76.886 46.0103 77.1282 41.6694 76.7063C34.6833 76.0225 32.2062 70.8436 32.2062 66.6199C32.2062 61.347 35.7988 57.4711 41.3626 56.7444C44.0117 56.3966 58.484 56.5607 58.6384 56.5607L58.9411 56.5667L58.9724 47.8848H58.6657L42.2828 47.9161C40.4582 48.0274 37.434 48.211 34.3356 49.477C31.3641 50.8406 28.7736 52.9348 26.8416 55.5391C24.38 58.8524 23.0769 62.7888 23.0769 66.9148C23.0769 68.2159 23.1805 69.5034 23.3895 70.74C24.5676 76.5265 28.3634 81.3188 33.8042 83.8936C35.6406 84.7024 38.4752 85.6694 44.1875 85.9918L47.2664 86.0562L58.6853 86.066H58.988L59.0193 76.8802" fill="#475467"/>
</svg>
