<svg width="140" height="32" viewBox="0 0 140 32" fill="none" xmlns="http://www.w3.org/2000/svg">
<g opacity="0.33">
<path d="M12 6C6.49 6 2 10.49 2 16C2 21.51 6.49 26 12 26C17.51 26 22 21.51 22 16C22 10.49 17.51 6 12 6ZM16.06 17.79C15.91 17.94 15.72 18.01 15.53 18.01C15.34 18.01 15.15 17.94 15 17.79L12 14.79L9 17.79C8.71 18.08 8.23 18.08 7.94 17.79C7.65 17.5 7.65 17.02 7.94 16.73L11.47 13.2C11.76 12.91 12.24 12.91 12.53 13.2L16.06 16.73C16.35 17.03 16.35 17.5 16.06 17.79Z" fill="#F478BA"/>
</g>
<g opacity="0.66">
<path d="M39.0007 4.33337C32.5723 4.33337 27.334 9.57171 27.334 16C27.334 22.4284 32.5723 27.6667 39.0007 27.6667C45.429 27.6667 50.6673 22.4284 50.6673 16C50.6673 9.57171 45.429 4.33337 39.0007 4.33337ZM43.7373 18.0884C43.5623 18.2634 43.3407 18.345 43.119 18.345C42.8973 18.345 42.6757 18.2634 42.5007 18.0884L39.0007 14.5884L35.5007 18.0884C35.1623 18.4267 34.6023 18.4267 34.264 18.0884C33.9257 17.75 33.9257 17.19 34.264 16.8517L38.3823 12.7334C38.7207 12.395 39.2807 12.395 39.619 12.7334L43.7373 16.8517C44.0757 17.2017 44.0757 17.75 43.7373 18.0884Z" fill="#F478BA"/>
</g>
<path d="M69.9993 2.66663C62.6527 2.66663 56.666 8.65329 56.666 16C56.666 23.3466 62.6527 29.3333 69.9993 29.3333C77.346 29.3333 83.3327 23.3466 83.3327 16C83.3327 8.65329 77.346 2.66663 69.9993 2.66663ZM75.4127 18.3866C75.2127 18.5866 74.9593 18.68 74.706 18.68C74.4527 18.68 74.1994 18.5866 73.9993 18.3866L69.9993 14.3866L65.9993 18.3866C65.6127 18.7733 64.9727 18.7733 64.586 18.3866C64.1993 18 64.1993 17.36 64.586 16.9733L69.2927 12.2666C69.6793 11.88 70.3193 11.88 70.706 12.2666L75.4127 16.9733C75.7993 17.3733 75.7993 18 75.4127 18.3866Z" fill="#F478BA"/>
<g opacity="0.66">
<path d="M101.001 4.33337C94.5723 4.33337 89.334 9.57171 89.334 16C89.334 22.4284 94.5723 27.6667 101.001 27.6667C107.429 27.6667 112.667 22.4284 112.667 16C112.667 9.57171 107.429 4.33337 101.001 4.33337ZM105.737 18.0884C105.562 18.2634 105.341 18.345 105.119 18.345C104.897 18.345 104.676 18.2634 104.501 18.0884L101.001 14.5884L97.5007 18.0884C97.1623 18.4267 96.6023 18.4267 96.264 18.0884C95.9257 17.75 95.9257 17.19 96.264 16.8517L100.382 12.7334C100.721 12.395 101.281 12.395 101.619 12.7334L105.737 16.8517C106.076 17.2017 106.076 17.75 105.737 18.0884Z" fill="#F478BA"/>
</g>
<g opacity="0.33">
<path d="M128 6C122.49 6 118 10.49 118 16C118 21.51 122.49 26 128 26C133.51 26 138 21.51 138 16C138 10.49 133.51 6 128 6ZM132.06 17.79C131.91 17.94 131.72 18.01 131.53 18.01C131.34 18.01 131.15 17.94 131 17.79L128 14.79L125 17.79C124.71 18.08 124.23 18.08 123.94 17.79C123.65 17.5 123.65 17.02 123.94 16.73L127.47 13.2C127.76 12.91 128.24 12.91 128.53 13.2L132.06 16.73C132.35 17.03 132.35 17.5 132.06 17.79Z" fill="#F478BA"/>
</g>
</svg>
