<svg width="40" height="40" viewBox="0 0 40 40" fill="none" xmlns="http://www.w3.org/2000/svg">
<path d="M30 0.859863H10C4 0.859863 0 4.85986 0 10.8599V22.8599C0 28.8599 4 32.8599 10 32.8599V37.1199C10 38.7199 11.78 39.6799 13.1 38.7799L22 32.8599H30C36 32.8599 40 28.8599 40 22.8599V10.8599C40 4.85986 36 0.859863 30 0.859863ZM20 25.1999C19.16 25.1999 18.5 24.5199 18.5 23.6999C18.5 22.8799 19.16 22.1999 20 22.1999C20.84 22.1999 21.5 22.8799 21.5 23.6999C21.5 24.5199 20.84 25.1999 20 25.1999ZM22.52 16.8999C21.74 17.4199 21.5 17.7599 21.5 18.3199V18.7399C21.5 19.5599 20.82 20.2399 20 20.2399C19.18 20.2399 18.5 19.5599 18.5 18.7399V18.3199C18.5 15.9999 20.2 14.8599 20.84 14.4199C21.58 13.9199 21.82 13.5799 21.82 13.0599C21.82 12.0599 21 11.2399 20 11.2399C19 11.2399 18.18 12.0599 18.18 13.0599C18.18 13.8799 17.5 14.5599 16.68 14.5599C15.86 14.5599 15.18 13.8799 15.18 13.0599C15.18 10.3999 17.34 8.23986 20 8.23986C22.66 8.23986 24.82 10.3999 24.82 13.0599C24.82 15.3399 23.14 16.4799 22.52 16.8999Z" fill="#F478BA"/>
</svg>
