<svg width="136" height="41" viewBox="0 0 136 41" fill="none" xmlns="http://www.w3.org/2000/svg">
<g clip-path="url(#clip0_12_1148)">
<path fill-rule="evenodd" clip-rule="evenodd" d="M130.662 40.5H5.6659C2.90918 40.5 0.664062 38.2456 0.664062 35.5V5.5C0.664062 2.74439 2.90918 0.5 5.6659 0.5H130.662C133.416 0.5 135.664 2.74439 135.664 5.5V35.5C135.664 38.2456 133.416 40.5 130.662 40.5Z" fill="black"/>
<path fill-rule="evenodd" clip-rule="evenodd" d="M130.662 1.3005C132.974 1.3005 134.867 3.18828 134.867 5.5V35.5C134.867 37.8117 132.987 39.6995 130.662 39.6995H5.6659C3.35373 39.6995 1.46128 37.8117 1.46128 35.5V5.5C1.46128 3.18828 3.34131 1.3005 5.6659 1.3005H130.662ZM130.662 0.5H5.6659C2.90918 0.5 0.664062 2.75436 0.664062 5.5V35.5C0.664062 38.2556 2.90918 40.5 5.6659 40.5H130.662C133.416 40.5 135.664 38.2556 135.664 35.5V5.5C135.664 2.75436 133.416 0.5 130.662 0.5Z" fill="#A6A6A6"/>
<path d="M71.7825 13.7318C70.881 13.7318 70.121 13.4151 69.52 12.7917C68.9239 12.1857 68.5911 11.3503 68.606 10.4974C68.606 9.5872 68.914 8.81663 69.52 8.20565C70.1185 7.58221 70.8785 7.2655 71.78 7.2655C72.6716 7.2655 73.4315 7.58221 74.0425 8.20565C74.6485 8.83658 74.9564 9.60715 74.9564 10.4974C74.9465 11.4101 74.6385 12.1807 74.0425 12.7892C73.444 13.4176 72.684 13.7318 71.7825 13.7318ZM44.958 13.7318C44.0763 13.7318 43.3114 13.4201 42.6856 12.8042C42.0647 12.1907 41.7493 11.4151 41.7493 10.4999C41.7493 9.58471 42.0647 8.80914 42.6856 8.19568C43.299 7.57972 44.0639 7.268 44.958 7.268C45.3951 7.268 45.8198 7.35528 46.2271 7.53234C46.6269 7.70441 46.9522 7.93882 47.1931 8.2256L47.2527 8.29792L46.5797 8.96126L46.5102 8.87897C46.1302 8.4251 45.6211 8.20316 44.948 8.20316C44.347 8.20316 43.823 8.41762 43.3909 8.84156C42.9563 9.268 42.7352 9.8266 42.7352 10.5024C42.7352 11.1782 42.9563 11.7368 43.3909 12.1633C43.823 12.5872 44.347 12.8017 44.948 12.8017C45.5888 12.8017 46.1277 12.5872 46.5474 12.1633C46.7958 11.9139 46.9498 11.5648 47.0044 11.1234H44.8462V10.1907H47.9307L47.9432 10.2755C47.9655 10.4326 47.9879 10.5947 47.9879 10.7443C47.9879 11.6047 47.7296 12.3004 47.218 12.8141C46.6368 13.4226 45.8769 13.7318 44.958 13.7318ZM80.6238 13.5997H79.6726L76.7594 8.91887L76.7843 9.76176V13.5972H75.8331V7.40017H76.9184L76.9482 7.44755L79.6875 11.8565L79.6627 11.0161V7.40017H80.6238V13.5997ZM64.6349 13.5997H63.6713V8.33284H61.9999V7.40017H66.3038V8.33284H64.6324V13.5997H64.6349ZM61.2151 13.5997H60.254V7.40017H61.2151V13.5997ZM55.8134 13.5997H54.8523V8.33284H53.1809V7.40017H57.4848V8.33284H55.8134V13.5997ZM52.5724 13.5897H48.8869V7.40017H52.5724V8.33284H49.8505V10.0336H52.3067V10.9563H49.8505V12.657H52.5724V13.5897ZM70.2253 12.1508C70.655 12.5822 71.1765 12.7992 71.7825 12.7992C72.4058 12.7992 72.915 12.5872 73.3396 12.1508C73.7618 11.7269 73.9754 11.1707 73.9754 10.4999C73.9754 9.82909 73.7618 9.27049 73.3421 8.84904C72.9125 8.41762 72.3885 8.20066 71.785 8.20066C71.1616 8.20066 70.6525 8.41264 70.2303 8.84904C69.8081 9.27298 69.5945 9.82909 69.5945 10.4999C69.5945 11.1707 69.8056 11.7293 70.2253 12.1508Z" fill="white"/>
<path fill-rule="evenodd" clip-rule="evenodd" d="M68.5166 22.2557C66.1697 22.2557 64.2673 24.0437 64.2673 26.51C64.2673 28.9539 66.1821 30.7644 68.5166 30.7644C70.8636 30.7644 72.766 28.9639 72.766 26.51C72.766 24.0437 70.8636 22.2557 68.5166 22.2557ZM68.5166 29.0786C67.2326 29.0786 66.1275 28.0113 66.1275 26.5001C66.1275 24.9664 67.2351 23.9215 68.5166 23.9215C69.8006 23.9215 70.9058 24.9664 70.9058 26.5001C70.9083 28.0212 69.8006 29.0786 68.5166 29.0786ZM59.2456 22.2557C56.8986 22.2557 54.9962 24.0437 54.9962 26.51C54.9962 28.9539 56.9111 30.7644 59.2456 30.7644C61.5925 30.7644 63.4949 28.9639 63.4949 26.51C63.4949 24.0437 61.59 22.2557 59.2456 22.2557ZM59.2456 29.0786C57.9616 29.0786 56.8564 28.0113 56.8564 26.5001C56.8564 24.9664 57.9641 23.9215 59.2456 23.9215C60.5296 23.9215 61.6347 24.9664 61.6347 26.5001C61.6347 28.0212 60.5296 29.0786 59.2456 29.0786ZM48.2137 23.5549V25.3554H52.5177C52.386 26.3654 52.0533 27.111 51.5441 27.6222C50.9133 28.2557 49.9398 28.9439 48.2236 28.9439C45.5787 28.9439 43.5099 26.7993 43.5099 24.1434C43.5099 21.4876 45.5787 19.3429 48.2236 19.3429C49.6517 19.3429 50.6923 19.909 51.4647 20.6322L52.7362 19.3554C51.6633 18.323 50.2353 17.5325 48.2336 17.5325C44.6051 17.5325 41.5603 20.5001 41.5603 24.1335C41.5603 27.7769 44.6026 30.7345 48.2336 30.7345C50.1931 30.7345 51.6633 30.0911 52.8256 28.8791C54.0103 27.6896 54.3853 26.0113 54.3853 24.6572C54.3853 24.2357 54.353 23.8567 54.286 23.535H48.2112C48.2137 23.5325 48.2137 23.5549 48.2137 23.5549ZM93.3371 24.9564C92.982 24.0013 91.9091 22.2457 89.7087 22.2457C87.5281 22.2457 85.7151 23.9689 85.7151 26.5001C85.7151 28.8891 87.5082 30.7544 89.9198 30.7544C91.8569 30.7544 92.9844 29.5649 93.4489 28.8666L92.0109 27.8991C91.5341 28.6098 90.871 29.0761 89.9297 29.0761C88.9785 29.0761 88.3129 28.6422 87.8708 27.7868L93.5358 25.4302C93.5358 25.4327 93.3371 24.9564 93.3371 24.9564ZM87.5604 26.3779C87.5157 24.7345 88.832 23.8991 89.7732 23.8991C90.5158 23.8991 91.1342 24.2656 91.3453 24.7993L87.5604 26.3779ZM82.9584 30.5001H84.8186V18.0013H82.9584V30.5001ZM79.9037 23.2008H79.8366C79.4169 22.6996 78.6197 22.2457 77.6014 22.2457C75.4879 22.2457 73.5408 24.1135 73.5408 26.5125C73.5408 28.9015 75.478 30.7469 77.6014 30.7469C78.6072 30.7469 79.4169 30.2906 79.8366 29.7794H79.9037V30.3903C79.9037 32.0138 79.0394 32.8891 77.6461 32.8891C76.5062 32.8891 75.7984 32.0661 75.5103 31.3779L73.8935 32.0562C74.3579 33.1784 75.5972 34.5674 77.6436 34.5674C79.8242 34.5674 81.6719 33.2781 81.6719 30.1335V22.5001H79.9136V23.2008C79.9161 23.2008 79.9037 23.2008 79.9037 23.2008ZM77.7678 29.0786C76.4838 29.0786 75.4109 28.0013 75.4109 26.5125C75.4109 25.0113 76.4838 23.924 77.7678 23.924C79.0394 23.924 80.0253 25.0237 80.0253 26.5125C80.0378 28.0013 79.0419 29.0786 77.7678 29.0786ZM102.047 18.0013H97.5989V30.5001H99.459V25.7669H102.049C104.108 25.7669 106.132 24.2681 106.132 21.8891C106.132 19.51 104.116 18.0013 102.047 18.0013ZM102.102 24.0212H99.4565V19.732H102.102C103.495 19.732 104.282 20.8866 104.282 21.8766C104.282 22.8567 103.485 24.0212 102.102 24.0212ZM113.588 22.2332C112.237 22.2332 110.844 22.8342 110.267 24.1434L111.916 24.8317C112.272 24.1434 112.922 23.909 113.61 23.909C114.574 23.909 115.547 24.4876 115.57 25.52V25.6522C115.237 25.4626 114.507 25.1734 113.633 25.1734C111.852 25.1734 110.046 26.1509 110.046 27.9838C110.046 29.6621 111.507 30.7395 113.133 30.7395C114.383 30.7395 115.071 30.1734 115.5 29.5175H115.567V30.4851H117.36V25.6971C117.36 23.4676 115.711 22.2332 113.588 22.2332ZM113.354 29.0786C112.746 29.0786 111.894 28.7794 111.894 28.0113C111.894 27.0437 112.957 26.6771 113.864 26.6771C114.683 26.6771 115.071 26.8542 115.557 27.0986C115.423 28.2207 114.479 29.0686 113.354 29.0786ZM123.902 22.5001L121.766 27.9215H121.699L119.486 22.5001H117.485L120.805 30.0786L118.913 34.2906H120.85L125.958 22.5001H123.902ZM107.158 30.5001H109.018V18.0013H107.158V30.5001Z" fill="white"/>
<path fill-rule="evenodd" clip-rule="evenodd" d="M11.0553 8.03364C10.7672 8.34536 10.6008 8.82167 10.6008 9.44511V31.5573C10.6008 32.1808 10.7672 32.6571 11.0653 32.9563L11.1422 33.0237L23.4804 20.6346V20.3578L11.1323 7.96631L11.0553 8.03364Z" fill="url(#paint0_linear_12_1148)"/>
<path fill-rule="evenodd" clip-rule="evenodd" d="M27.5855 24.7768L23.4702 20.6446V20.3553L27.5855 16.2231L27.6749 16.278L32.5426 19.0561C33.9359 19.8441 33.9359 21.1458 32.5426 21.9438L27.6749 24.7219L27.5855 24.7768Z" fill="url(#paint1_linear_12_1148)"/>
<path fill-rule="evenodd" clip-rule="evenodd" d="M27.675 24.7219L23.4704 20.5L11.0552 32.9663C11.5097 33.4551 12.2721 33.51 13.124 33.0337L27.675 24.7219Z" fill="url(#paint2_linear_12_1148)"/>
<path fill-rule="evenodd" clip-rule="evenodd" d="M27.675 16.2781L13.124 7.97882C12.2721 7.49004 11.5072 7.55737 11.0552 8.04615L23.4704 20.5L27.675 16.2781Z" fill="url(#paint3_linear_12_1148)"/>
<path opacity="0.2" fill-rule="evenodd" clip-rule="evenodd" d="M27.5855 24.6322L13.1337 32.8766C12.3266 33.3429 11.6064 33.3105 11.1419 32.8865L11.0649 32.9638L11.1419 33.0312C11.6064 33.4526 12.3266 33.4875 13.1337 33.0212L27.6848 24.722L27.5855 24.6322Z" fill="black"/>
<path opacity="0.12" fill-rule="evenodd" clip-rule="evenodd" d="M32.5428 21.7993L27.5732 24.6322L27.6626 24.7219L32.5304 21.9439C33.2282 21.5449 33.571 21.0212 33.571 20.5C33.5288 20.9788 33.1736 21.4327 32.5428 21.7993Z" fill="black"/>
<path opacity="0.25" fill-rule="evenodd" clip-rule="evenodd" d="M13.1241 8.12342L32.5429 19.2007C33.1737 19.5573 33.5288 20.0237 33.5835 20.5C33.5835 19.9788 33.2407 19.4551 32.5429 19.0561L13.1241 7.97878C11.7308 7.17828 10.6008 7.84661 10.6008 9.44511V9.58975C10.6008 7.98875 11.7308 7.33289 13.1241 8.12342Z" fill="white"/>
</g>
<defs>
<linearGradient id="paint0_linear_12_1148" x1="22.3737" y1="9.20654" x2="2.59932" y2="14.4538" gradientUnits="userSpaceOnUse">
<stop stop-color="#00A0FF"/>
<stop offset="0.00657" stop-color="#00A1FF"/>
<stop offset="0.2601" stop-color="#00BEFF"/>
<stop offset="0.5122" stop-color="#00D2FF"/>
<stop offset="0.7604" stop-color="#00DFFF"/>
<stop offset="1" stop-color="#00E3FF"/>
</linearGradient>
<linearGradient id="paint1_linear_12_1148" x1="34.3596" y1="20.5" x2="10.2618" y2="20.5" gradientUnits="userSpaceOnUse">
<stop stop-color="#FFE000"/>
<stop offset="0.4087" stop-color="#FFBD00"/>
<stop offset="0.7754" stop-color="#FFA500"/>
<stop offset="1" stop-color="#FF9C00"/>
</linearGradient>
<linearGradient id="paint2_linear_12_1148" x1="25.3887" y1="22.7973" x2="9.42591" y2="49.5538" gradientUnits="userSpaceOnUse">
<stop stop-color="#FF3A44"/>
<stop offset="1" stop-color="#C31162"/>
</linearGradient>
<linearGradient id="paint3_linear_12_1148" x1="7.92889" y1="0.678805" x2="15.0506" y2="12.6287" gradientUnits="userSpaceOnUse">
<stop stop-color="#32A071"/>
<stop offset="0.0685" stop-color="#2DA771"/>
<stop offset="0.4762" stop-color="#15CF74"/>
<stop offset="0.8009" stop-color="#06E775"/>
<stop offset="1" stop-color="#00F076"/>
</linearGradient>
<clipPath id="clip0_12_1148">
<rect width="135" height="40" fill="white" transform="translate(0.664062 0.5)"/>
</clipPath>
</defs>
</svg>
