<svg width="136" height="22" viewBox="0 0 136 22" fill="none" xmlns="http://www.w3.org/2000/svg">
<g clip-path="url(#clip0_483_1357)">
<path d="M28.7063 21.9167C30.5256 21.9167 32.0005 20.4419 32.0005 18.6226C32.0005 16.8032 30.5256 15.3284 28.7063 15.3284C26.887 15.3284 25.4121 16.8032 25.4121 18.6226C25.4121 20.4419 26.887 21.9167 28.7063 21.9167Z" fill="#F478BA"/>
<path fill-rule="evenodd" clip-rule="evenodd" d="M23.4033 7.18038V8.62181V8.62272C23.4033 11.6248 21.556 14.1946 18.937 15.2611H23.3651V21.986H16.5801L10.6369 15.7889H10.5214V21.986H0V0.0141602H16.2371C20.1946 0.0141602 23.4033 3.22281 23.4033 7.18038ZM17.0069 7.90105C17.0069 9.72038 15.532 11.1952 13.7127 11.1952C11.8933 11.1952 10.4185 9.72038 10.4185 7.90105C10.4185 6.08173 11.8933 4.60687 13.7127 4.60687C15.532 4.60687 17.0069 6.08173 17.0069 7.90105Z" fill="#F478BA"/>
</g>
<path d="M41.458 6.12743H45.103V8.71942H45.157C45.337 8.28743 45.58 7.89143 45.886 7.53142C46.192 7.15342 46.543 6.83843 46.939 6.58643C47.335 6.31642 47.758 6.10942 48.208 5.96543C48.658 5.82143 49.126 5.74943 49.612 5.74943C49.864 5.74943 50.143 5.79443 50.449 5.88443V9.44843C50.269 9.41243 50.053 9.38543 49.801 9.36743C49.549 9.33143 49.306 9.31343 49.072 9.31343C48.37 9.31343 47.776 9.43043 47.29 9.66443C46.804 9.89843 46.408 10.2224 46.102 10.6364C45.814 11.0324 45.607 11.5004 45.481 12.0404C45.355 12.5804 45.292 13.1654 45.292 13.7954V20.0864H41.458V6.12743ZM60.8735 11.6084C60.6935 10.6364 60.3695 9.89842 59.9015 9.39443C59.4515 8.89043 58.7585 8.63843 57.8225 8.63843C57.2105 8.63843 56.6975 8.74643 56.2835 8.96242C55.8875 9.16043 55.5635 9.41243 55.3115 9.71843C55.0775 10.0244 54.9065 10.3484 54.7985 10.6904C54.7085 11.0324 54.6545 11.3384 54.6365 11.6084H60.8735ZM54.6365 14.0384C54.6905 15.2804 55.0055 16.1804 55.5815 16.7384C56.1575 17.2964 56.9855 17.5754 58.0655 17.5754C58.8395 17.5754 59.5055 17.3864 60.0635 17.0084C60.6215 16.6124 60.9635 16.1984 61.0895 15.7664H64.4645C63.9245 17.4404 63.0965 18.6374 61.9805 19.3574C60.8645 20.0774 59.5145 20.4374 57.9305 20.4374C56.8325 20.4374 55.8425 20.2664 54.9605 19.9244C54.0785 19.5644 53.3315 19.0604 52.7195 18.4124C52.1075 17.7644 51.6305 16.9904 51.2885 16.0904C50.9645 15.1904 50.8025 14.2004 50.8025 13.1204C50.8025 12.0764 50.9735 11.1044 51.3155 10.2044C51.6575 9.30443 52.1435 8.53043 52.7735 7.88243C53.4035 7.21643 54.1505 6.69442 55.0145 6.31642C55.8965 5.93843 56.8685 5.74943 57.9305 5.74943C59.1185 5.74943 60.1535 5.98343 61.0355 6.45143C61.9175 6.90143 62.6375 7.51343 63.1955 8.28743C63.7715 9.06143 64.1855 9.94343 64.4375 10.9334C64.6895 11.9234 64.7795 12.9584 64.7075 14.0384H54.6365ZM66.9814 6.12743H70.6264V8.07143H70.7074C71.1934 7.26143 71.8234 6.67643 72.5974 6.31642C73.3714 5.93843 74.1634 5.74943 74.9734 5.74943C75.9994 5.74943 76.8364 5.89343 77.4844 6.18142C78.1504 6.45143 78.6724 6.83843 79.0504 7.34242C79.4284 7.82843 79.6894 8.43143 79.8334 9.15142C79.9954 9.85343 80.0764 10.6364 80.0764 11.5004V20.0864H76.2424V12.2024C76.2424 11.0504 76.0624 10.1954 75.7024 9.63743C75.3424 9.06143 74.7034 8.77342 73.7854 8.77342C72.7414 8.77342 71.9854 9.08843 71.5174 9.71843C71.0494 10.3304 70.8154 11.3474 70.8154 12.7694V20.0864H66.9814V6.12743ZM87.8463 6.12743H90.6543V8.69243H87.8463V15.6044C87.8463 16.2524 87.9543 16.6844 88.1703 16.9004C88.3863 17.1164 88.8183 17.2244 89.4663 17.2244C89.6823 17.2244 89.8893 17.2154 90.0873 17.1974C90.2853 17.1794 90.4743 17.1524 90.6543 17.1164V20.0864C90.3303 20.1404 89.9703 20.1764 89.5743 20.1944C89.1783 20.2124 88.7913 20.2214 88.4133 20.2214C87.8193 20.2214 87.2523 20.1764 86.7123 20.0864C86.1903 20.0144 85.7223 19.8614 85.3083 19.6274C84.9123 19.3934 84.5973 19.0604 84.3633 18.6284C84.1293 18.1964 84.0123 17.6294 84.0123 16.9274V8.69243H81.6903V6.12743H84.0123V1.94242H87.8463V6.12743ZM92.4785 6.12743H96.1235V8.71942H96.1775C96.3575 8.28743 96.6005 7.89143 96.9065 7.53142C97.2125 7.15342 97.5635 6.83843 97.9595 6.58643C98.3555 6.31642 98.7785 6.10942 99.2285 5.96543C99.6785 5.82143 100.147 5.74943 100.633 5.74943C100.885 5.74943 101.164 5.79443 101.47 5.88443V9.44843C101.29 9.41243 101.074 9.38543 100.822 9.36743C100.57 9.33143 100.327 9.31343 100.093 9.31343C99.3905 9.31343 98.7965 9.43043 98.3105 9.66443C97.8245 9.89843 97.4285 10.2224 97.1225 10.6364C96.8345 11.0324 96.6275 11.5004 96.5015 12.0404C96.3755 12.5804 96.3125 13.1654 96.3125 13.7954V20.0864H92.4785V6.12743Z" fill="#0A0A0C"/>
<path d="M111.784 8.65843C112.84 8.83843 113.488 9.58243 113.488 10.7224C113.488 11.9224 112.696 13.0864 110.632 13.0864H107.056V4.56643H110.428C112.528 4.56643 113.26 5.68243 113.26 6.79843C113.26 7.65043 112.768 8.39443 111.784 8.65843ZM110.176 5.74243H108.604V8.16643H110.176C111.376 8.16643 111.664 7.55443 111.664 6.96643C111.664 6.33043 111.316 5.74243 110.176 5.74243ZM110.344 11.9104C111.484 11.9104 111.904 11.2984 111.904 10.5784C111.904 9.84643 111.448 9.30643 110.428 9.30643H108.604V11.9104H110.344ZM116.631 11.8744H120.699V13.0864H115.083V4.56643H120.615V5.77843H116.631V8.11843H120.411V9.31843H116.631V11.8744ZM128.296 4.56643V5.82643H125.716V13.0864H124.168V5.82643H121.588V4.56643H128.296ZM134.058 13.0864L133.29 10.8424H129.954L129.186 13.0864H127.614L130.782 4.56643H132.462L135.63 13.0864H134.058ZM130.362 9.66643H132.882L131.886 6.78643C131.79 6.51043 131.706 6.24643 131.634 5.87443H131.61C131.538 6.24643 131.454 6.51043 131.358 6.78643L130.362 9.66643Z" fill="#475467"/>
<defs>
<clipPath id="clip0_483_1357">
<rect width="32" height="21.9718" fill="white" transform="translate(0 0.0141602)"/>
</clipPath>
</defs>
</svg>
