<svg width="200" height="134" viewBox="0 0 200 134" fill="none" xmlns="http://www.w3.org/2000/svg">
<path fill-rule="evenodd" clip-rule="evenodd" d="M103.966 57.881C102.676 56.7955 100.473 56.2534 97.3571 56.2534H90.329V77.9727H95.5842V71.1656H97.9383C100.795 71.1656 102.891 70.5368 104.224 69.2779C105.726 67.8676 106.482 65.9897 106.482 63.6454C106.482 61.2143 105.643 59.2925 103.966 57.881ZM97.8077 66.251H95.5842V61.1679H97.5818C100.012 61.1679 101.226 62.0202 101.226 63.7247C101.226 65.4073 100.086 66.251 97.8077 66.251ZM115.474 56.2522H109.995V77.9715H121.826V73.0557H115.474V56.2522ZM132.563 56.2522L123.954 77.9715H129.854L130.983 74.814H138.462L139.494 77.9715H145.46L136.913 56.2522H132.563ZM132.498 70.4171L134.755 62.9934L136.978 70.4171H132.498ZM148.198 77.9715H153.679V56.2522H148.198V77.9715ZM174.958 60.323C174.266 59.3191 173.377 58.4663 172.345 57.8163C170.691 56.7735 168.433 56.2534 165.575 56.2534H158.354V77.9715H166.801C169.853 77.9715 172.303 76.9739 174.151 74.9764C176 72.98 176.923 70.3304 176.923 67.03C176.923 64.4048 176.269 62.1692 174.958 60.323ZM166.188 73.0545H163.835V61.1692H166.221C167.897 61.1692 169.186 61.6942 170.089 62.7406C170.993 63.787 171.444 65.2718 171.444 67.1936C171.444 71.1009 169.692 73.0545 166.188 73.0545ZM45.8329 38.0176L28.0708 42.6696L23.1758 60.5318L29.298 66.8176L23.0769 72.9995L27.6838 90.9399L45.3689 95.8813L51.5912 89.6981L57.7133 95.9826L75.4754 91.3306L80.3692 73.4672L74.2483 67.1839L80.4693 61.0019L75.8624 43.0604L58.1749 38.1189L51.955 44.3009L45.8329 38.0176ZM34.9329 46.1056L44.2895 43.6538L48.3811 47.854L42.4141 53.7833L34.9329 46.1056ZM55.4728 47.9102L59.6303 43.7795L68.9466 46.3827L61.3434 53.9371L55.4728 47.9102ZM28.7815 59.0654L31.359 49.6575L38.8377 57.3352L32.8719 63.2644L28.7815 59.0641V59.0654ZM64.8587 57.5476L72.4619 49.9908L74.8868 59.4414L70.7305 63.5733L64.8587 57.5476ZM45.9306 57.3926L51.8976 51.4634L57.767 57.4903L51.8012 63.4195L45.9306 57.3926ZM36.3896 66.8737L42.3554 60.9445L48.2285 66.9714L42.2602 72.9006L36.3896 66.8737ZM55.3189 67.0288L61.2848 61.0996L67.1554 67.1265L61.1883 73.0557L55.3189 67.0288ZM28.6569 74.5588L32.8157 70.4257L38.6851 76.4538L31.0843 84.007L28.6569 74.5588ZM45.7767 76.5099L51.7438 70.5807L57.6144 76.6076L51.6486 82.5369L45.7767 76.5099ZM64.7048 76.6662L70.6719 70.737L74.7635 74.9361L72.1872 84.344L64.7048 76.6662ZM34.5996 87.6187L42.2016 80.0619L48.0747 86.0888L43.9159 90.2219L34.5996 87.6187ZM55.1651 86.1462L61.1309 80.2169L68.6108 87.8959L59.2555 90.3464L55.1651 86.1462Z" fill="#475467"/>
</svg>
