<svg width="80" height="31" viewBox="0 0 80 31" fill="none" xmlns="http://www.w3.org/2000/svg">
<path fill-rule="evenodd" clip-rule="evenodd" d="M42.0626 10.329C41.3914 9.76452 40.246 9.48262 38.6257 9.48262H34.9711V20.7767H37.7038V17.237H38.9279C40.4137 17.237 41.5032 16.91 42.1965 16.2554C42.9775 15.522 43.3705 14.5455 43.3705 13.3265C43.3705 12.0623 42.9343 11.0629 42.0626 10.329ZM38.86 14.6814H37.7038V12.0382H38.7425C40.006 12.0382 40.6378 12.4814 40.6378 13.3677C40.6378 14.2427 40.0448 14.6814 38.86 14.6814ZM48.0467 9.48198H45.1972V20.776H51.3496V18.2198H48.0467V9.48198ZM56.9325 9.48198L52.4563 20.776H55.5242L56.1109 19.1341H60.0005L60.537 20.776H63.6392L59.1948 9.48198H56.9325ZM56.8989 16.8478L58.0728 12.9874L59.2284 16.8478H56.8989ZM65.0627 20.776H67.9129V9.48198H65.0627V20.776ZM78.9784 11.5988C78.6184 11.0768 78.1562 10.6334 77.6197 10.2953C76.7593 9.75309 75.5854 9.48262 74.099 9.48262H70.344V20.776H74.7365C76.3238 20.776 77.5974 20.2573 78.5587 19.2186C79.52 18.1805 80 16.8027 80 15.0865C80 13.7214 79.6597 12.5588 78.9784 11.5988ZM74.4177 18.2192H73.1942V12.0388H74.4349C75.3066 12.0388 75.9765 12.3118 76.4463 12.856C76.9162 13.4001 77.1511 14.1722 77.1511 15.1715C77.1511 17.2033 76.24 18.2192 74.4177 18.2192ZM11.8331 0L2.59685 2.41907L0.051429 11.7074L3.23495 14.976L0 18.1906L2.39557 27.5196L11.5918 30.0891L14.8274 26.8739L18.0109 30.1418L27.2472 27.7228L29.792 18.4338L26.6091 15.1665L29.844 11.9518L27.4485 2.62224L18.2509 0.0526988L15.0166 3.26733L11.8331 0ZM6.16513 4.20575L11.0306 2.93082L13.1582 5.11496L10.0553 8.19816L6.16513 4.20575ZM16.8458 5.14417L19.0078 2.99621L23.8523 4.34988L19.8986 8.27816L16.8458 5.14417ZM2.96637 10.9448L4.3067 6.05275L8.19562 10.0452L5.09337 13.1284L2.96637 10.9442V10.9448ZM21.7265 10.1556L25.6802 6.22608L26.9412 11.1404L24.7799 13.289L21.7265 10.1556ZM11.8839 10.075L14.9868 6.9918L18.0389 10.1258L14.9366 13.209L11.8839 10.075ZM6.92259 15.0052L10.0248 11.922L13.0788 15.056L9.97532 18.1392L6.92259 15.0052ZM16.7658 15.0858L19.8681 12.0026L22.9208 15.1366L19.8179 18.2198L16.7658 15.0858ZM2.90161 19.0014L5.06417 16.8522L8.11625 19.9868L4.16384 23.9145L2.90161 19.0014ZM11.8039 20.016L14.9068 16.9328L17.9595 20.0668L14.8573 23.15L11.8039 20.016ZM21.6465 20.0973L24.7494 17.0141L26.877 19.1976L25.5373 24.0897L21.6465 20.0973ZM5.99179 25.7926L9.94484 21.863L12.9988 24.997L10.8363 27.1462L5.99179 25.7926ZM16.6858 25.0269L19.7881 21.9437L23.6776 25.9367L18.8128 27.211L16.6858 25.0269Z" fill="#475467"/>
</svg>
