<svg width="220" height="199" viewBox="0 0 220 199" fill="none" xmlns="http://www.w3.org/2000/svg">
<path d="M109.222 198.726C158.477 198.726 198.406 196.667 198.406 194.127C198.406 191.587 158.477 189.528 109.222 189.528C59.9678 189.528 20.0391 191.587 20.0391 194.127C20.0391 196.667 59.9678 198.726 109.222 198.726Z" fill="black"/>
<path d="M190.985 99.0366C191.574 99.2707 192.134 99.6077 192.64 100.049C195.061 102.158 195.337 105.853 193.258 108.302C186.169 116.652 175.292 120.341 164.871 117.928C150.457 114.589 144.988 101.38 144.413 99.8861C143.252 96.8744 144.721 93.4821 147.694 92.3105C150.667 91.1383 154.017 92.631 155.176 95.6428C155.315 96.0038 158.678 104.491 167.434 106.518C173.667 107.962 180.203 105.719 184.493 100.666C186.138 98.7289 188.763 98.1517 190.986 99.0373L190.985 99.0366Z" fill="black"/>
<path d="M218.665 94.2408C218.061 93.5932 217.234 93.1293 216.301 92.8907C217.042 90.9882 217.814 88.862 217.757 86.636C217.699 84.3334 216.524 81.6151 214.029 80.7318C213.695 80.6139 213.358 80.5374 213.018 80.4916C213.551 79.2075 214.022 77.3042 213.543 75.103C212.872 72.0319 210.721 70.3343 210.014 69.7766C205.84 66.4827 200.416 67.3345 197.555 68.136C195.066 68.8325 192.736 69.9522 190.628 71.4623C188.358 73.0894 186.813 74.9146 186.036 76.8869C185.851 77.3552 185.713 77.8333 185.62 78.3129C183.946 78.2633 180.905 78.5253 178.503 80.6965C176.944 82.1059 176.23 83.7585 175.684 85.1965C175.117 86.687 174.401 88.934 174.712 91.2283C174.722 91.3004 174.964 93.0145 175.932 94.8202C176.251 95.4154 176.656 95.9955 177.124 96.5592C176.681 99.5702 177.384 102.901 179.084 105.765C181.216 109.357 183.928 111.261 186.054 112.518C187.813 113.559 189.739 114.342 191.748 114.843C192.985 115.151 194.253 115.352 195.534 115.44C195.683 115.482 195.832 115.523 195.982 115.56C197.035 115.823 198.096 115.954 199.136 115.942C202.239 115.909 205.182 114.585 207.056 112.394C208.808 112.263 210.688 111.772 212.512 110.69C215.983 108.633 218.588 104.988 219.659 100.691C220.342 97.9506 219.989 95.6601 218.666 94.2408H218.665Z" fill="black"/>
<path d="M213.301 82.1299C215.119 82.7739 215.994 84.9166 216.038 86.6352C216.089 88.6466 215.303 90.6834 214.597 92.4876C214.442 92.4854 214.287 92.4869 214.131 92.4967C212.588 92.592 211.203 93.2141 210.168 93.7455C208.046 94.8352 205.292 96.6897 202.82 99.7308C202.259 99.7518 201.702 99.7998 201.16 99.8464C200.181 99.9312 199.257 100.011 198.331 99.9447C196.588 99.8201 195.186 99.0831 194.58 97.9723C193.807 96.5546 194.331 94.7227 194.906 93.4348C197.968 86.5804 205.286 83.5694 209.376 82.3843C210.703 82.0001 212.097 81.7029 213.302 82.1292L213.301 82.1299Z" fill="#F5F8E0"/>
<path d="M201.584 82.3192C202.274 82.2779 203.202 82.3484 204.108 82.81C201.22 84.1564 198.066 86.1985 195.724 89.2411C195.507 87.933 194.954 86.6879 194.119 85.6597C195.093 85.5006 195.92 85.2672 196.42 85.1253L196.442 85.1193C198.554 84.5227 200.253 83.4667 201.584 82.3192H201.584Z" fill="#F5F8E0"/>
<path d="M187.795 77.3485C188.445 75.6996 189.771 74.1491 191.735 72.7411C193.629 71.3842 195.724 70.3786 197.96 69.7519C200.464 69.0509 205.193 68.2936 208.74 71.0923C209.387 71.6026 211.107 72.9595 211.646 75.437C212.109 77.5564 211.441 79.3786 210.992 80.292C210.224 80.3655 209.459 80.5539 208.717 80.7686C207.793 81.0365 206.71 81.3952 205.547 81.8665C205.363 81.7269 205.172 81.5971 204.974 81.4815C204.257 81.0628 203.527 80.8481 202.857 80.7513C203.299 80.271 203.682 79.7974 204.007 79.3561C204.219 79.0672 204.161 78.6581 203.875 78.442C203.59 78.2266 203.186 78.2859 202.973 78.5748C202.449 79.287 201.764 80.0878 200.907 80.8526C200.899 80.8594 200.892 80.8661 200.884 80.8729C199.645 81.9724 198.047 82.9938 196.049 83.5582L196.027 83.5642C194.638 83.9567 190.414 85.1507 188.446 82.8632C187.287 81.516 187.026 79.2998 187.795 77.347V77.3485Z" fill="#F5F8E0"/>
<path d="M199.156 114.155C198.09 114.166 196.996 114.006 195.911 113.692C195.906 113.69 195.901 113.689 195.897 113.688C194.442 113.263 193.005 112.558 191.678 111.6C189.771 110.223 188.089 108.365 186.679 106.079C186.483 105.763 186.072 105.667 185.76 105.864C185.448 106.061 185.353 106.478 185.548 106.795C187.052 109.232 188.855 111.22 190.906 112.7C190.942 112.727 190.979 112.751 191.015 112.777C189.573 112.324 188.189 111.713 186.903 110.952C184.938 109.789 182.433 108.033 180.479 104.743C179.16 102.52 178.509 99.9966 178.613 97.6257C182.493 101.34 188.659 104.033 189.509 104.394C189.542 104.408 189.575 104.419 189.608 104.427C189.921 104.505 190.253 104.343 190.381 104.032C190.523 103.688 190.363 103.292 190.023 103.148C189.669 102.998 182.373 99.8652 178.747 95.8448C178.691 95.6721 178.569 95.528 178.404 95.4477C178.004 94.9644 177.66 94.4698 177.39 93.9677C176.553 92.4067 176.335 90.8884 176.333 90.8749C176.13 89.3829 176.412 87.6995 177.218 85.5771C177.724 84.2434 178.33 82.8408 179.651 81.6467C181.64 79.8477 184.193 79.5971 185.662 79.6278C185.634 81.2594 186.132 82.816 187.121 83.9643C187.883 84.8506 188.853 85.3542 189.885 85.6109C190.673 85.8075 191.497 85.8593 192.291 85.8293C192.319 85.875 192.352 85.9186 192.392 85.9576C193.756 87.2755 194.509 89.2756 194.358 91.1774C194.356 91.1946 194.358 91.2119 194.358 91.2284C194.039 91.7703 193.743 92.3346 193.477 92.9283C193.097 93.7801 192.74 94.8353 192.652 95.9288C192.523 95.9521 192.401 96.0136 192.302 96.1134C191.722 96.6981 190.816 97.0118 189.817 96.9758C188.988 96.9457 188.079 96.6906 186.957 96.1727C184.825 95.1888 183.213 93.9054 182.166 92.3579C180.961 90.5755 180.58 88.4448 181.147 86.6586C181.26 86.3036 181.067 85.9231 180.716 85.8082C180.366 85.6934 179.99 85.8886 179.877 86.2435C179.338 87.9427 179.492 89.8775 180.264 91.6554L178.144 91.2126C177.784 91.1376 177.432 91.3725 177.357 91.738C177.285 92.0945 177.505 92.4435 177.851 92.5298C177.859 92.532 177.868 92.5335 177.877 92.5358L181.021 93.1925C181.056 93.2 181.089 93.2015 181.124 93.203C182.31 94.9186 184.085 96.3318 186.405 97.4021C186.918 97.6392 187.6 97.9274 188.369 98.1188C188.813 98.2291 189.285 98.3079 189.771 98.3252C190.884 98.3657 191.931 98.0693 192.734 97.5004C192.822 97.9327 192.969 98.3589 193.193 98.7687C193.853 99.9785 195.129 100.863 196.732 101.263C197.165 101.371 197.622 101.444 198.097 101.478C199.145 101.553 200.185 101.463 201.191 101.376C201.358 101.362 201.527 101.347 201.698 101.333C201.184 102.069 200.688 102.862 200.221 103.717C198.684 106.528 198.331 108.424 199.109 109.682C199.492 110.301 200.046 110.626 200.429 110.817C201.01 111.106 201.78 111.397 202.683 111.623C203.414 111.805 204.232 111.943 205.108 112.002C203.528 113.344 201.393 114.131 199.157 114.154L199.156 114.155Z" fill="#F5F8E0"/>
<path d="M211.627 108.816C206.62 111.784 201.623 109.361 201.413 109.256C201.045 109.073 200.824 108.891 200.673 108.648C200.229 107.929 200.618 106.374 201.768 104.269C202.374 103.161 203.031 102.17 203.717 101.281C203.885 101.07 204.054 100.86 204.222 100.65C206.452 97.9686 208.91 96.3213 210.812 95.3441C212.145 94.6596 213.18 94.3272 214.17 94.2656C214.637 94.2371 215.092 94.2784 215.513 94.3835C216.167 94.5463 216.739 94.8615 217.149 95.3006C218.415 96.6582 218.086 98.942 217.776 100.183C216.85 103.901 214.609 107.048 211.628 108.816L211.627 108.816Z" fill="#F5F8E0"/>
<path d="M167.097 59.3034L119.319 0.299452C119.313 0.291196 119.306 0.284442 119.299 0.276186C119.289 0.264178 119.279 0.25217 119.268 0.241663C119.26 0.234158 119.252 0.226653 119.244 0.219148C119.231 0.207139 119.219 0.195882 119.205 0.184624C119.198 0.17862 119.19 0.173367 119.183 0.167363C119.169 0.156105 119.154 0.144848 119.139 0.135091C119.131 0.129837 119.124 0.126085 119.116 0.120831C119.1 0.111075 119.085 0.102069 119.069 0.0930627C119.061 0.0885596 119.052 0.0848071 119.043 0.0803041C119.027 0.072799 119.012 0.065294 118.996 0.0585394C118.986 0.0547869 118.976 0.0510344 118.967 0.0472818C118.952 0.0420283 118.936 0.0367748 118.921 0.0322717C118.91 0.0292697 118.899 0.0262677 118.889 0.0232657C118.874 0.0195131 118.859 0.0157606 118.843 0.0135091C118.832 0.0112576 118.82 0.00900606 118.808 0.00750505C118.793 0.00525354 118.778 0.00375253 118.762 0.00225152C118.755 0.00225152 118.748 0 118.741 0C118.736 0 118.732 0 118.727 0C118.712 0 118.697 0 118.681 0C118.669 0 118.657 0 118.645 0.000750505C118.63 0.00150101 118.615 0.00375253 118.6 0.00525354C118.588 0.00675455 118.576 0.00750505 118.565 0.00975657C118.55 0.0120081 118.535 0.0157606 118.52 0.0187626C118.509 0.0210141 118.498 0.0232657 118.487 0.0262677C118.471 0.0307707 118.456 0.0360243 118.441 0.0412778C118.43 0.0450303 118.42 0.0472818 118.41 0.0517849C118.394 0.0577889 118.379 0.0645434 118.364 0.0720485C118.354 0.0765515 118.345 0.0803041 118.335 0.0848071C118.321 0.0915616 118.309 0.0998172 118.295 0.107322C118.284 0.113326 118.273 0.11933 118.263 0.126085C118.252 0.132839 118.242 0.140344 118.233 0.147099C118.22 0.156105 118.207 0.164361 118.195 0.174117C118.195 0.174117 118.194 0.174117 118.194 0.174868L87.3149 24.874L70.2642 21.8164C70.2176 21.8074 70.1704 21.8029 70.1231 21.8029C70.1231 21.8029 70.1231 21.8029 70.1223 21.8029C70.0698 21.8029 70.0195 21.8074 69.9692 21.8164C69.9677 21.8164 69.9677 21.8164 69.9677 21.8164H69.9662C69.8596 21.8367 69.7568 21.8795 69.6645 21.9425C69.6645 21.9425 69.6645 21.9425 69.6638 21.9425C69.6638 21.9425 69.663 21.9425 69.6623 21.9433C69.6503 21.9515 69.639 21.9598 69.6277 21.968L60.4656 29.0393C60.2652 29.1939 60.1474 29.4348 60.1474 29.69V48.996L39.1677 68.9452C39.1677 68.9452 39.164 68.9489 39.1625 68.9512C39.158 68.9557 39.1535 68.9609 39.149 68.9654C39.1242 68.9909 39.1009 69.0172 39.0799 69.045C39.0762 69.0502 39.0717 69.0547 39.0679 69.0607C39.0454 69.0923 39.0251 69.1253 39.0071 69.1598C39.0041 69.1658 39.0011 69.1711 38.9989 69.1771C38.9636 69.2484 38.9388 69.3242 38.9261 69.4022C38.9246 69.409 38.9238 69.4157 38.9223 69.4232C38.9171 69.4608 38.9141 69.4983 38.9141 69.5358C38.9141 69.5441 38.9141 69.5516 38.9141 69.5591C38.9148 69.5981 38.9178 69.6379 38.9238 69.6769C38.9238 69.6784 38.9246 69.6807 38.9253 69.6822C38.9321 69.7227 38.9426 69.7617 38.9553 69.8007C38.9561 69.8037 38.9568 69.8067 38.9576 69.809L41.1393 76.2176C41.2204 76.4562 41.4065 76.6439 41.6429 76.7257C41.7277 76.7549 41.8155 76.7692 41.9033 76.7692C42.0594 76.7692 42.214 76.7234 42.3476 76.6341L47.4285 73.2456L51.6877 128.838C51.6877 128.844 51.6899 128.85 51.6899 128.856C51.6922 128.882 51.6959 128.908 51.7004 128.934C51.7019 128.943 51.7034 128.951 51.7049 128.96C51.7124 128.995 51.7214 129.03 51.7327 129.064C51.7327 129.064 51.7327 129.065 51.7334 129.067C51.7447 129.099 51.7575 129.13 51.7717 129.16C51.7755 129.169 51.7792 129.176 51.7837 129.184C51.7957 129.208 51.8085 129.23 51.822 129.253C51.8273 129.261 51.8318 129.269 51.837 129.277C51.8535 129.302 51.8715 129.326 51.8903 129.35C51.8933 129.353 51.8956 129.356 51.8986 129.36C51.9203 129.386 51.9436 129.411 51.9683 129.434C51.9751 129.441 51.9826 129.447 51.9894 129.453C52.0081 129.47 52.0284 129.487 52.0487 129.503C52.0569 129.509 52.0652 129.515 52.0734 129.521C52.0982 129.538 52.1237 129.554 52.15 129.569C52.153 129.571 52.1552 129.573 52.1582 129.575C52.159 129.575 52.1597 129.575 52.1605 129.575C52.192 129.593 52.2243 129.608 52.258 129.621C52.2633 129.624 52.2693 129.625 52.2746 129.627C52.3016 129.638 52.3293 129.647 52.3579 129.654C52.3669 129.657 52.3751 129.659 52.3841 129.661C52.4104 129.667 52.4367 129.672 52.4637 129.676C52.4719 129.678 52.4809 129.679 52.4892 129.68C52.5237 129.684 52.5582 129.687 52.5935 129.687C52.601 129.687 52.6085 129.687 52.616 129.687L123.61 127.918C123.629 127.918 123.648 127.915 123.666 127.914C123.678 127.913 123.69 127.912 123.702 127.911C123.735 127.906 123.768 127.9 123.801 127.893C123.81 127.891 123.819 127.888 123.828 127.885C123.853 127.879 123.878 127.87 123.902 127.861C123.911 127.858 123.92 127.855 123.929 127.851C123.955 127.84 123.98 127.828 124.005 127.816C124.009 127.813 124.015 127.812 124.019 127.809L155.198 110.793C155.202 110.79 155.206 110.788 155.209 110.786C155.223 110.778 155.236 110.77 155.249 110.761C155.263 110.753 155.276 110.744 155.289 110.735C155.3 110.727 155.311 110.718 155.321 110.71C155.335 110.699 155.35 110.688 155.363 110.676C155.372 110.668 155.38 110.66 155.389 110.651C155.403 110.638 155.417 110.624 155.431 110.609C155.434 110.606 155.437 110.603 155.44 110.6C155.444 110.595 155.448 110.59 155.453 110.585C155.465 110.57 155.478 110.554 155.49 110.538C155.497 110.529 155.504 110.52 155.51 110.51C155.52 110.495 155.531 110.479 155.54 110.462C155.546 110.452 155.553 110.441 155.559 110.431C155.568 110.415 155.576 110.399 155.584 110.383C155.59 110.371 155.595 110.36 155.6 110.348C155.607 110.332 155.613 110.316 155.619 110.3C155.624 110.287 155.628 110.274 155.633 110.261C155.638 110.245 155.642 110.228 155.646 110.212C155.649 110.199 155.653 110.186 155.656 110.173C155.66 110.155 155.663 110.138 155.665 110.12C155.666 110.108 155.669 110.096 155.67 110.084C155.672 110.064 155.674 110.044 155.675 110.023C155.675 110.013 155.676 110.003 155.676 109.993C155.676 109.969 155.676 109.944 155.674 109.918C155.674 109.913 155.674 109.908 155.674 109.903V109.898C155.674 109.898 155.673 109.893 155.673 109.89L152.468 71.0278L163.663 66.2996C163.999 66.1578 164.206 65.8351 164.221 65.4891L167.179 60.219C167.344 59.9248 167.313 59.5571 167.102 59.2952L167.097 59.3034Z" fill="black"/>
<path d="M86.5122 109.794L81.1543 48.2567L115.128 14.6641L149.64 58.8996L153.779 109.077L86.5122 109.794Z" fill="#F5F8E0"/>
<path d="M77.0442 35.1768L106.36 11.7273L69.5302 47.696L48.1445 62.6573L77.0442 35.1768Z" fill="#C3907D"/>
<path d="M85.6177 26.234L76.0157 33.9146C75.9977 33.9289 75.9805 33.9439 75.9632 33.9604L71.551 38.1557L70.9648 23.6064L85.617 26.234H85.6177Z" fill="#F5F8E0"/>
<path d="M61.7617 30.0998L69.3726 24.2263L69.9933 39.6364L61.7617 47.4635V30.0998Z" fill="#ABC4B5"/>
<path d="M42.3265 74.6917L40.6836 69.8667L69.6801 49.5813L71.8798 54.9804L48.1241 70.8251C47.8232 70.8581 47.5702 71.0375 47.4306 71.2874L42.3265 74.6917Z" fill="#ABC4B5"/>
<path d="M73.3114 55.9855C73.3414 55.966 73.3707 55.945 73.3985 55.921C73.4172 55.9052 73.4352 55.888 73.4525 55.8707L79.4723 49.9185L84.7206 110.201L53.3885 127.291L49.1602 72.0936L73.3107 55.9863L73.3114 55.9855Z" fill="#ABC6B5"/>
<path d="M123.345 126.089L56.3691 127.756L85.9128 111.642L151.089 110.947L123.345 126.089Z" fill="#C3907D"/>
<path d="M151.443 58.6542C151.414 58.3105 151.203 58.0268 150.913 57.8932L116.289 13.5143L118.519 11.3093L161.93 65.0425L152.304 69.1072L151.442 58.6535L151.443 58.6542Z" fill="black"/>
<path d="M163.188 64.0167L119.21 9.58178C119.067 9.40391 118.856 9.29583 118.63 9.28307C118.615 9.28232 118.6 9.28157 118.585 9.28157C118.375 9.28157 118.172 9.36488 118.021 9.51423L114.641 12.8562C114.641 12.8562 114.641 12.8562 114.64 12.857L79.9543 47.1536C79.6706 47.2414 79.4507 47.4643 79.3584 47.7427L73.1705 53.8608L71 48.5337L118.625 2.02344L165.495 59.9077L163.188 64.0174V64.0167Z" fill="#F6F8E1"/>
<path d="M56.9533 92.3835C56.9773 92.6214 57.1177 92.8315 57.3263 92.9433C57.4291 92.9981 57.5424 93.0259 57.655 93.0259C57.7676 93.0259 57.8877 92.9966 57.9927 92.9388L74.4198 83.8735C74.6705 83.7354 74.8138 83.4577 74.7838 83.1703L72.8167 64.3123C72.7912 64.0669 72.6426 63.8523 72.4235 63.7442C72.2043 63.6361 71.9461 63.6504 71.7397 63.7817L55.4951 74.0989C55.2669 74.2438 55.1401 74.5064 55.1678 74.7774L56.9525 92.3835H56.9533Z" fill="black"/>
<path d="M71.53 65.6008L73.329 82.8452L58.2468 91.1683L56.6152 75.0737L71.53 65.6008Z" fill="#D8B79A"/>
<path d="M97.2822 78.4961C97.1028 78.6703 96.9324 78.8069 96.7658 78.9382C96.5992 79.0665 96.4386 79.1866 96.2795 79.2954C95.962 79.5153 95.6558 79.7075 95.3504 79.8846C95.0464 80.0632 94.7335 80.2148 94.4393 80.4017C94.3642 80.446 94.2937 80.4977 94.2201 80.5435L94.1105 80.6148L94.004 80.6914L93.7901 80.8437L93.5829 81.0058C93.0268 81.4389 92.5202 81.944 92.0437 82.5114C91.8072 82.7965 91.5776 83.0982 91.3584 83.4172C91.1385 83.7369 90.9284 84.0709 90.7093 84.4229L90.7003 84.4372C90.5599 84.6623 90.2642 84.7313 90.0391 84.591C89.9047 84.5069 89.8252 84.3651 89.8139 84.218C89.7809 83.7579 89.8237 83.2971 89.9085 82.8416C89.9963 82.3868 90.1314 81.9372 90.3145 81.5034C90.683 80.6381 91.2286 79.8268 91.9168 79.1528L92.178 78.9029L92.4549 78.6695C92.5015 78.6312 92.5472 78.5915 92.5953 78.5547L92.7416 78.4474C92.8399 78.3768 92.9353 78.3018 93.0381 78.238L93.3443 78.0436C93.4479 77.9806 93.5552 77.9243 93.6602 77.865C93.7653 77.8057 93.8741 77.7531 93.9852 77.7044C94.0948 77.6541 94.2066 77.6076 94.3214 77.5693C94.7762 77.4072 95.2566 77.3186 95.7429 77.3216C95.9861 77.3246 96.23 77.3456 96.4731 77.3989C96.7155 77.4514 96.9565 77.5257 97.1914 77.6556C97.4405 77.7937 97.5306 78.1074 97.3933 78.3558C97.3685 78.4008 97.3377 78.4406 97.3032 78.4744L97.2814 78.4954L97.2822 78.4961Z" fill="black"/>
<path d="M94.1687 46.5726C94.1364 46.1177 94.1814 45.6629 94.267 45.2126C94.3548 44.7631 94.4944 44.3203 94.6768 43.8917L94.7466 43.7311L94.8231 43.5735C94.8749 43.4685 94.9252 43.3619 94.9852 43.2613C95.0438 43.1593 95.1015 43.0564 95.1623 42.9551L95.3582 42.6594C95.4228 42.5596 95.4971 42.4673 95.5691 42.3727C95.6419 42.2789 95.7132 42.1821 95.7935 42.0943C95.8716 42.0042 95.9504 41.9149 96.0307 41.8256C96.1132 41.7393 96.1988 41.656 96.2843 41.5719L96.4134 41.4466C96.4577 41.4061 96.5035 41.3678 96.5485 41.3288C96.6393 41.2507 96.7301 41.1712 96.824 41.0969C96.9193 41.0241 97.0161 40.952 97.1129 40.8807C97.2082 40.8072 97.3125 40.7464 97.4124 40.6796C97.8184 40.4207 98.2499 40.2008 98.698 40.0296C99.5956 39.6934 100.557 39.5268 101.507 39.6304C102.053 39.6904 102.448 40.1812 102.388 40.7276C102.345 41.1209 102.079 41.4353 101.729 41.5584L101.663 41.5809C101.31 41.7048 100.968 41.8159 100.633 41.9404C100.298 42.0658 99.9708 42.1964 99.6526 42.3435C99.3344 42.4898 99.0259 42.6497 98.7235 42.823C98.6484 42.8673 98.5711 42.9078 98.4983 42.9551C98.4248 43.0017 98.3512 43.0482 98.2754 43.0932L98.057 43.2403C98.021 43.2651 97.9835 43.2883 97.9475 43.3139L97.8416 43.3927C97.2698 43.8054 96.7331 44.2865 96.2363 44.8464C95.9849 45.1241 95.7447 45.422 95.5113 45.7372C95.2772 46.0525 95.0535 46.3849 94.8224 46.7354L94.8171 46.7437C94.709 46.9073 94.4891 46.9523 94.3255 46.8442C94.2302 46.7812 94.1754 46.6784 94.1672 46.5733L94.1687 46.5726Z" fill="black"/>
<path d="M134.608 45.8244C134.291 45.5489 133.986 45.29 133.675 45.0491C133.365 44.8089 133.053 44.5868 132.736 44.3872C132.106 43.9826 131.46 43.6644 130.798 43.4213L130.675 43.3747C130.634 43.3597 130.591 43.3477 130.55 43.3335L130.3 43.2509C130.215 43.2276 130.132 43.2029 130.048 43.1781C129.965 43.1518 129.88 43.1346 129.795 43.1113C129.458 43.0265 129.118 42.9552 128.772 42.9004C128.426 42.8449 128.075 42.8073 127.719 42.7773C127.362 42.7481 127.003 42.733 126.63 42.709L126.562 42.7045C126.013 42.67 125.596 42.1972 125.631 41.6486C125.656 41.2538 125.909 40.9273 126.253 40.7885C127.139 40.432 128.111 40.3329 129.065 40.414C129.543 40.4575 130.018 40.5528 130.479 40.6924C130.593 40.7299 130.71 40.7607 130.822 40.8058C130.935 40.8485 131.047 40.8913 131.158 40.9356C131.269 40.9821 131.378 41.0339 131.486 41.0842C131.54 41.1097 131.595 41.1345 131.648 41.1615L131.806 41.2478C131.911 41.3056 132.016 41.3626 132.119 41.4234C132.22 41.4872 132.32 41.5525 132.42 41.6178C132.521 41.6808 132.616 41.7544 132.711 41.8249C132.806 41.897 132.903 41.9653 132.992 42.0441L133.261 42.276C133.346 42.3578 133.43 42.4411 133.513 42.5229C133.599 42.6032 133.676 42.6925 133.754 42.7796L133.871 42.9109L133.982 43.0468C134.274 43.4108 134.527 43.7988 134.734 44.2078C134.938 44.6176 135.104 45.0439 135.196 45.4904C135.236 45.6825 135.112 45.8702 134.921 45.9092C134.809 45.9325 134.699 45.9002 134.618 45.8311L134.61 45.8236L134.608 45.8244Z" fill="black"/>
<path d="M116.472 98.0505C117.104 97.4021 117.888 96.9097 118.738 96.5653C119.59 96.2223 120.519 96.0399 121.447 96.0354C122.375 96.0219 123.307 96.1982 124.164 96.5307C125.019 96.8684 125.808 97.36 126.438 98.0115C126.657 98.2381 126.651 98.5991 126.424 98.8183C126.255 98.9819 126.009 99.0201 125.805 98.9338L125.784 98.9248C125.422 98.771 125.067 98.6269 124.709 98.5008C124.351 98.3762 123.992 98.2681 123.631 98.1811C123.27 98.097 122.908 98.0302 122.546 97.9875C122.184 97.9387 121.819 97.9207 121.455 97.9207C120.725 97.9192 119.998 98.0107 119.277 98.1916C118.554 98.3657 117.845 98.6374 117.132 98.9594L117.114 98.9676C116.828 99.0975 116.491 98.9699 116.361 98.6832C116.262 98.464 116.314 98.2141 116.472 98.0512V98.0505Z" fill="black"/>
<path d="M138.389 78.4466C138.422 78.4489 138.462 78.4504 138.489 78.4534L138.572 78.4624C138.627 78.4684 138.675 78.4759 138.726 78.4834C138.828 78.4984 138.924 78.5164 139.02 78.5367C139.211 78.578 139.398 78.626 139.582 78.6845C139.949 78.8009 140.307 78.9487 140.647 79.1408C140.986 79.3315 141.312 79.5544 141.599 79.8246C141.749 79.9521 141.878 80.1015 142.009 80.2471L142.058 80.3019L142.102 80.3604L142.19 80.4782C142.247 80.5571 142.308 80.6336 142.36 80.7154C142.563 81.0456 142.744 81.3834 142.862 81.7458C142.984 82.1053 143.063 82.4753 143.097 82.8431C143.132 83.2108 143.123 83.5763 143.076 83.9321C143.029 84.2886 142.952 84.6323 142.827 84.979C142.715 85.2912 142.372 85.4533 142.059 85.3415C141.78 85.2417 141.621 84.9558 141.671 84.6736L141.675 84.6503C141.719 84.3974 141.734 84.1227 141.724 83.8585C141.713 83.5928 141.674 83.3332 141.606 83.087C141.539 82.8408 141.444 82.6097 141.327 82.395C141.214 82.1781 141.057 81.9898 140.902 81.8111C140.862 81.7676 140.816 81.7301 140.774 81.6888L140.711 81.6288L140.68 81.5987L140.645 81.5725C140.551 81.5027 140.465 81.4276 140.362 81.3706C140.17 81.2438 139.956 81.1492 139.734 81.0719C139.514 80.9931 139.278 80.9421 139.042 80.9113C138.924 80.8948 138.804 80.8865 138.687 80.882C138.63 80.8805 138.571 80.8805 138.518 80.882C138.492 80.8835 138.462 80.8835 138.44 80.8858L138.406 80.8888C138.394 80.8895 138.396 80.8918 138.39 80.8933C137.718 81.0216 137.068 80.5803 136.94 79.9071C136.812 79.2347 137.253 78.5847 137.926 78.4571C138.028 78.4376 138.128 78.4316 138.227 78.4369L138.387 78.4466H138.389Z" fill="black"/>
<path d="M92.7298 79.5649C93.5711 80.2869 94.4342 80.9796 95.3235 81.6325C96.2159 82.2817 97.1263 82.9024 98.0689 83.469C98.3023 83.6146 98.5432 83.7467 98.7789 83.8871C99.0138 84.0297 99.2569 84.1572 99.4956 84.2923C99.7335 84.4282 99.9782 84.5528 100.221 84.6796L100.586 84.8695L100.956 85.0488C101.446 85.2935 101.948 85.5149 102.448 85.7356L103.204 86.0545C103.458 86.1558 103.713 86.2526 103.968 86.3525C104.221 86.4553 104.482 86.5378 104.739 86.6309L105.124 86.7675L105.317 86.8358C105.382 86.8576 105.447 86.8771 105.512 86.8973L106.294 87.142C106.424 87.1848 106.555 87.2201 106.686 87.2561L107.08 87.3642L107.474 87.4737C107.606 87.5105 107.738 87.539 107.871 87.572C108.136 87.6351 108.4 87.7019 108.666 87.7619L109.466 87.927C109.599 87.9563 109.733 87.9796 109.868 88.0028L110.27 88.0741C111.343 88.2595 112.426 88.3901 113.515 88.4802C114.605 88.5665 115.701 88.6017 116.804 88.6145C117.355 88.6197 117.91 88.6175 118.467 88.6115L120.147 88.592L121.814 88.5642L122.641 88.5387C122.915 88.5267 123.191 88.5184 123.464 88.5042C124.557 88.4471 125.639 88.3518 126.707 88.1927C126.973 88.1477 127.241 88.1109 127.506 88.0591C127.77 88.0051 128.036 87.9571 128.298 87.8985C128.56 87.837 128.825 87.7799 129.086 87.7146L129.866 87.5022C131.935 86.8898 133.94 85.9877 135.795 84.8304C137.645 83.6664 139.359 82.2585 140.844 80.6269L140.86 80.6096C141.055 80.395 141.387 80.3792 141.602 80.5743C141.817 80.7695 141.832 81.1019 141.637 81.3166C141.635 81.3188 141.631 81.3226 141.63 81.3248C141.531 81.4284 141.435 81.5342 141.34 81.6416L141.053 81.9613C140.959 82.0693 140.86 82.1729 140.764 82.278C140.667 82.3838 140.569 82.4881 140.469 82.5909C140.074 83.0067 139.662 83.406 139.24 83.7962C138.393 84.5715 137.506 85.31 136.565 85.9772C134.685 87.3169 132.625 88.4254 130.425 89.2164L129.593 89.4933C129.314 89.5796 129.032 89.6577 128.752 89.7402C128.47 89.8183 128.185 89.8813 127.901 89.9526C127.617 90.0209 127.33 90.0735 127.045 90.1343C125.9 90.3594 124.744 90.5005 123.596 90.5846C123.308 90.6063 123.022 90.6213 122.736 90.6401C122.45 90.6551 122.165 90.6649 121.879 90.6776L121.026 90.7046L120.177 90.7212C119.614 90.7302 119.052 90.7377 118.487 90.7414C117.921 90.7452 117.352 90.7459 116.78 90.7384C115.637 90.7257 114.487 90.6701 113.338 90.5688C112.188 90.466 111.042 90.3001 109.905 90.0847L109.479 90.0022L109.266 89.9609C109.195 89.9459 109.125 89.9286 109.054 89.9129L108.208 89.717C107.928 89.6464 107.648 89.5691 107.369 89.4948C107.23 89.4566 107.089 89.4228 106.95 89.38L106.535 89.2539L106.121 89.1263C105.983 89.0843 105.845 89.0415 105.709 88.9927L104.89 88.7083C104.822 88.6843 104.754 88.6618 104.686 88.6363L104.484 88.5582L104.08 88.4013C103.812 88.2955 103.541 88.1957 103.278 88.0771C103.013 87.9623 102.748 87.8497 102.485 87.7326L101.701 87.3664C101.441 87.2433 101.186 87.1067 100.929 86.9776C100.671 86.8501 100.42 86.7082 100.167 86.5709L99.7883 86.3637L99.4153 86.1461C99.1669 86.0012 98.9177 85.8579 98.6746 85.704C98.183 85.4061 97.7027 85.0901 97.2298 84.7637C95.3386 83.4608 93.5839 81.9718 92.0056 80.3252C91.8044 80.1158 91.8119 79.7825 92.0213 79.5814C92.218 79.393 92.5234 79.387 92.7261 79.5604L92.7298 79.5641V79.5649Z" fill="black"/>
<path d="M106.141 75.3792C102.762 75.7365 99.3892 69.8803 98.6094 62.3002C97.8296 54.7201 99.9378 48.286 103.317 47.9288C105.112 47.7396 106.904 49.3007 108.308 51.9425C107.231 52.3245 106.46 53.3639 106.46 54.5842C106.46 56.1303 107.697 57.3836 109.223 57.3836C109.571 57.3836 109.904 57.3183 110.212 57.1983C110.496 58.3983 110.712 59.6772 110.849 61.0086C111.629 68.5887 109.522 75.0228 106.141 75.38V75.3792Z" fill="black"/>
<path d="M132.083 75.8619C128.703 76.2191 125.331 70.363 124.551 62.7829C123.771 55.2028 125.879 48.7687 129.259 48.4114C131.053 48.2223 132.845 49.7834 134.25 52.4251C133.173 52.8071 132.401 53.8466 132.401 55.0669C132.401 56.613 133.639 57.8663 135.164 57.8663C135.513 57.8663 135.846 57.801 136.154 57.6809C136.437 58.881 136.653 60.1598 136.791 61.4912C137.571 69.0713 135.464 75.5054 132.083 75.8627V75.8619Z" fill="black"/>
<path d="M64.8575 106.847C65.1404 106.21 65.3236 105.514 65.3866 104.779C65.6861 101.263 63.1156 98.1669 59.6445 97.8637C47.8105 96.8287 36.5349 102.358 30.2172 112.295C21.479 126.041 27.1701 140.57 27.8478 142.181C29.213 145.428 32.9183 146.938 36.1237 145.555C39.3291 144.172 40.8196 140.419 39.4544 137.173C39.2908 136.784 35.515 127.564 40.8241 119.215C44.6029 113.272 51.3987 109.969 58.56 110.595C61.3046 110.835 63.7903 109.257 64.8583 106.847H64.8575Z" fill="black"/>
<path d="M43.6123 136.952C44.9858 138.068 51.1437 143.587 51.1181 152.724C51.0949 161.035 46.032 166.258 44.3118 167.791C43.3752 169.759 41.2107 173.274 36.9539 175.603C32.6092 177.979 28.4394 177.832 26.3402 177.534C26.2472 177.52 26.1623 177.486 26.0888 177.437C25.1642 177.939 24.202 178.381 23.1971 178.743C20.7632 179.619 18.0704 179.903 15.6147 179.543C13.024 179.164 10.7785 178.1 9.09586 176.46C7.92732 176.756 6.707 176.89 5.46566 176.728C2.81113 176.381 0.0417608 174.251 0.000483016 171.284C-0.00402002 170.974 0.0229982 170.662 0.0800366 170.351C0.308941 169.096 1.02117 167.848 2.11391 166.825C3.93838 165.118 5.78538 164.404 6.13736 164.278C9.00955 163.252 12.8709 161.338 17.9278 158.437C14.6946 154.175 13.9141 148.151 16.0155 143.2C16.8336 141.274 18.0681 139.556 19.5827 138.143C19.5947 138.068 19.6074 137.991 19.6217 137.912C19.8701 136.553 20.4803 134.788 21.9475 133.323C23.7562 131.516 25.95 131.161 27.2603 130.95L27.4795 130.914C33.4107 129.932 39.7352 132.301 43.6123 136.952Z" fill="black"/>
<path d="M27.669 132.492L27.4484 132.528C26.2273 132.725 24.3825 133.023 22.8793 134.524C22.08 135.323 21.5854 136.236 21.2785 137.093C23.5307 135.496 26.2048 134.509 28.9666 134.369C29.3051 134.352 29.5933 134.616 29.6106 134.959C29.6271 135.302 29.3667 135.594 29.0282 135.611C25.9624 135.766 23.0144 137.061 20.7283 139.11C20.6916 139.154 20.648 139.192 20.6008 139.224C19.1958 140.514 18.0513 142.093 17.2978 143.867C15.3097 148.552 16.1765 154.3 19.454 158.171C19.5733 158.312 19.6243 158.499 19.5928 158.682C19.5928 158.684 19.5921 158.686 19.5913 158.688C19.5583 158.869 19.4495 159.025 19.2919 159.115C13.9318 162.217 9.85877 164.25 6.83949 165.33C6.53253 165.439 4.9197 166.064 3.29785 167.582C2.20812 168.603 1.59196 169.865 1.60772 171.047C1.63849 173.266 3.87199 174.929 5.92387 175.197C8.27746 175.504 10.6408 174.539 12.6416 173.555C14.7821 172.503 19.162 170.026 24.4523 165.264C24.706 165.036 25.094 165.059 25.3192 165.316C25.5443 165.573 25.5218 165.966 25.2681 166.194C19.8675 171.056 15.375 173.594 13.1775 174.674C12.4052 175.054 11.5812 175.43 10.7196 175.741C14.1051 178.563 19.138 178.575 22.8373 177.244C27.4153 175.597 31.1446 172.107 34.2802 168.964C34.5211 168.722 34.9099 168.724 35.1485 168.968C35.3872 169.212 35.385 169.606 35.144 169.848C33.0006 171.996 30.584 174.302 27.7928 176.117C29.8808 176.234 33.0014 175.991 36.227 174.225C40.2017 172.051 42.1823 168.746 43.0093 166.97C43.0461 166.891 43.0986 166.821 43.1632 166.764C44.2252 165.835 49.5237 160.794 49.5462 152.761C49.5695 144.213 43.7328 139.09 42.562 138.15C42.5298 138.124 42.4997 138.095 42.4727 138.062C38.9273 133.775 33.1162 131.588 27.6675 132.49L27.669 132.492Z" fill="#F5F8E0"/>
<path d="M31.4496 143.645C31.5194 144.233 31.6928 146.184 30.5873 148.813C30.3179 149.454 29.8916 150.447 29.5186 150.392C29.3782 150.372 29.2326 150.202 29.0863 149.615C28.7763 148.378 29.039 147.598 29.4075 145.302C29.5373 144.491 29.6597 143.624 30.2421 142.727C30.6241 142.138 30.8222 142.124 30.904 142.138C31.2703 142.2 31.3933 143.168 31.4504 143.646L31.4496 143.645Z" fill="black"/>
<path d="M36.8529 145.603C36.9648 146.184 37.2762 148.118 36.3591 150.82C36.1355 151.479 35.7812 152.5 35.4052 152.473C35.2641 152.462 35.1065 152.303 34.9189 151.729C34.5219 150.517 34.729 149.721 34.9331 147.404C35.0052 146.586 35.066 145.711 35.5823 144.774C35.9216 144.159 36.1182 144.131 36.2008 144.139C36.5708 144.174 36.7614 145.131 36.8529 145.603V145.603Z" fill="black"/>
<path d="M42.4031 146.92C42.6343 147.464 43.345 149.287 43.0178 152.124C42.9382 152.816 42.8061 153.89 42.4331 153.945C42.2928 153.965 42.1059 153.844 41.8012 153.324C41.1588 152.225 41.1933 151.402 40.9059 149.095C40.8045 148.28 40.68 147.413 40.9877 146.385C41.1896 145.711 41.3757 145.641 41.4582 145.63C41.8267 145.585 42.2147 146.478 42.4031 146.92Z" fill="black"/>
<path d="M138.942 162.682C124.921 147.471 110.898 132.261 96.8765 117.05C94.6993 113.892 90.3959 113.412 87.8907 115.553C85.3179 117.752 85.1476 122.282 88.0565 124.932C101.606 140.456 115.156 155.98 128.705 171.503C131.847 176.302 137.723 176.844 140.301 174.545C142.837 172.283 143.078 166.468 138.943 162.683L138.942 162.682Z" fill="black"/>
<path d="M132.436 162.425C135.17 160.201 138.141 159.467 140.15 159.243V159.248C140.18 159.089 140.209 158.929 140.24 158.77C140.701 156.421 141.317 154.091 142.144 151.828C142.99 149.573 144.034 147.387 145.269 145.302C146.528 143.229 148.025 141.303 149.686 139.515C151.439 137.794 153.183 136.184 155.194 134.738C156.198 134.026 157.268 133.384 158.405 132.857C159.543 132.332 160.752 131.947 161.99 131.7C162.608 131.569 163.24 131.518 163.866 131.453C164.498 131.441 165.127 131.396 165.754 131.461C167.007 131.538 168.245 131.772 169.423 132.163C171.346 132.792 173.107 133.798 174.616 135.064C174.77 135.051 174.926 135.039 175.085 135.037C177.496 135.003 180.598 136.211 182.095 138.989C183.037 140.736 183.037 142.493 182.888 143.617C183.073 143.838 183.246 144.069 183.402 144.309C187.171 150.122 180.898 159.891 178.218 164.063C173.856 170.857 167.894 176.623 160.496 181.222L161.991 183.969C162.177 184.311 162.147 184.73 161.914 185.043C161.867 185.105 161.813 185.158 161.754 185.207V185.209C156.511 189.587 151.162 192.83 145.855 194.849C143.073 195.906 140.118 196.71 137.296 195.526C137.18 195.477 137.064 195.425 136.949 195.37C136.092 194.957 134.147 193.852 133.604 192.109C132.531 191.249 131.823 190.197 131.556 189.043C131.508 188.836 131.48 188.633 131.46 188.431C130.274 187.898 129.203 187.055 128.36 185.989C127.269 184.611 126.627 182.832 126.562 181.042C126.514 179.384 126.913 177.733 127.689 176.317C127.307 175.058 127.128 173.77 127.161 172.486C127.299 167.019 131.233 163.403 132.434 162.425L132.436 162.425Z" fill="black"/>
<path d="M181.743 145.391C180.938 144.149 179.517 143.209 178.124 142.995C175.948 142.66 173.591 144.049 170.243 147.636C166.014 152.168 163.968 156.212 161.989 160.123C161.448 161.193 160.936 162.204 160.382 163.222C157.52 168.487 153.752 173.431 149.168 177.944L158.991 179.822C166.354 175.333 172.262 169.669 176.555 162.984C178.813 159.467 184.812 150.124 181.742 145.39L181.743 145.391Z" fill="#C3907D"/>
<path d="M159.209 182.997L158.535 181.758L148.488 179.837L148.722 180.653L150.22 180.988L159.209 182.997Z" fill="#C3907D"/>
<path d="M135.456 191.363C135.597 192.179 136.738 193.062 137.805 193.575C139.933 194.6 142.283 194.08 145.155 192.988C149.726 191.25 154.344 188.555 158.905 184.965L148.013 182.531C141.49 185.149 135.07 189.127 135.456 191.363Z" fill="#C3907D"/>
<path d="M133.486 188.592C133.566 188.939 133.712 189.249 133.892 189.528C135.753 185.797 143.218 182.356 146.733 180.907L146.141 178.832C146.046 178.5 146.129 178.143 146.361 177.889C146.379 177.869 146.402 177.857 146.42 177.839L146.418 177.831C151.483 173.109 155.596 167.873 158.643 162.271C159.183 161.278 159.688 160.28 160.222 159.223C162.168 155.376 164.374 151.015 168.797 146.277C172.645 142.154 175.524 140.584 178.423 141.03C179.299 141.165 180.165 141.492 180.955 141.967C180.896 141.332 180.728 140.628 180.354 139.932C179.251 137.886 176.926 136.996 175.113 137.022C172.762 137.056 170.907 138.692 168.844 141.14C164.998 145.7 163.073 149.6 161.035 153.729C160.475 154.863 159.896 156.036 159.273 157.228C153.811 167.671 149.095 176.691 141.721 179.658L141.661 179.682C138.635 180.892 136.686 182.643 135.585 183.898C134.365 185.287 133.097 186.91 133.486 188.591V188.592Z" fill="#D9B99B"/>
<path d="M129.143 172.535C129.129 173.096 129.164 173.659 129.246 174.219C129.915 173.533 130.715 172.964 131.565 172.563C129.75 174.995 128.417 177.925 128.543 180.967C128.534 182.078 129.154 184.487 129.662 185.127C130.345 185.888 131.423 185.927 131.856 185.918C133.2 182.489 138.558 178.391 140.988 177.814C147.874 175.26 152.557 165.869 157.277 156.481C159.865 151.335 162.252 141.942 170.858 136.698C171.619 136.234 172.274 135.894 172.721 135.674C171.71 134.861 170.053 133.76 167.824 133.306C161.943 132.109 156.831 136.403 153.761 138.91C148.43 143.263 145.952 148.447 144.817 150.843C143.162 154.335 141.731 158.837 140.982 161.194C140.365 163.133 139.902 164.762 139.592 165.901L139.394 165.886C139.466 164.352 139.601 162.815 139.821 161.292C134.981 162.275 130.021 165.029 129.145 172.535H129.143Z" fill="#D8B79A"/>
<path d="M63.3366 160.081L60.0223 159.758L60.5214 158.642C61.7725 155.846 63.3133 153.262 65.1003 150.965C67.5266 147.847 69.8179 144.901 73.259 144.597C74.5521 144.483 75.8573 144.757 77.1414 145.402C77.1436 145.402 77.1459 145.401 77.1481 145.4C77.3155 145.347 77.4799 145.281 77.6495 145.238C77.9909 145.162 78.3294 145.073 78.6754 145.043C79.3629 144.958 80.0571 144.968 80.7273 145.091C82.0287 145.322 83.267 145.889 84.2321 146.818C84.7095 146.359 85.2558 145.968 85.8915 145.719C86.3568 145.553 86.8664 145.471 87.367 145.536C87.8668 145.597 88.3434 145.783 88.7667 146.039C89.62 146.557 90.27 147.324 90.7968 148.143C91.3289 148.964 91.738 149.859 92.0712 150.78C92.7294 152.629 93.0911 154.6 93.0964 156.629C93.0919 158.688 92.6213 160.698 91.7732 162.53C91.3357 163.439 90.7893 164.298 90.1206 165.031C90.0426 165.12 89.957 165.199 89.8759 165.284C90.1101 165.897 90.2204 166.573 90.1867 167.237C90.1686 167.606 90.1094 167.941 90.029 168.24C91.4392 168.51 92.8269 168.94 94.1523 169.549C94.3917 169.663 94.6432 169.749 94.8728 169.887L95.5693 170.285L96.265 170.682L96.9217 171.109C97.802 171.691 98.6681 172.341 99.4764 173.091C100.284 173.84 101.032 174.711 101.634 175.731C102.235 176.746 102.676 177.934 102.825 179.191C102.99 180.445 102.854 181.744 102.497 182.928C102.177 184.032 101.681 185.044 101.102 185.968C101.581 186.642 101.837 187.38 101.842 188.136C101.847 188.801 101.607 190.14 99.9575 191.639C95.0154 196.13 85.2641 196.114 84.8513 196.111C83.2332 196.1 81.3945 196.087 79.3801 195.89C75.9586 195.557 72.0304 194.696 67.8186 192.419C64.2259 190.476 60.5109 188.467 58.8868 183.834C57.7461 180.58 58.2572 177.548 58.9033 173.709C59.6906 169.036 61.1804 164.458 63.3358 160.081H63.3366Z" fill="black"/>
<path d="M60.3063 183.177C65.8075 194.93 88.7017 197.934 99.0158 190.32C100.537 188.688 100.485 188.489 100.1 187.37C94.4565 194.265 85.094 193.078 77.6865 192.214C59.9858 188.676 57.1144 180.486 65.7865 162.803C63.8232 168.81 61.7623 175.818 63.0764 182.103C64.696 186.02 68.8328 187.569 72.2281 189.001C80.8784 191.985 100.864 194.296 101.317 179.462C98.1963 168.759 84.4981 168.159 76.1209 170.869C79.9965 168.948 84.2527 167.752 88.4983 168.013C88.6799 167.568 88.7219 166.819 88.5876 166.356C84.9799 169.032 79.9237 165.814 80.642 160.946C81.5508 169.502 90.397 166.357 91.2901 159.297C92.8527 150.206 86.6393 140.297 81.1193 152.611C80.7621 151.599 82.3892 147.877 83.6155 147.488C78.9173 144.628 74.358 148.112 71.5376 152.298C71.8783 149.941 73.2975 147.739 75.1213 146.451C69.4632 145.233 65.2506 153.287 62.3994 158.27L65.842 158.604C62.178 165.599 58.4683 175.735 60.3063 183.177Z" fill="#D8B79A"/>
<path d="M89.1135 156.184C89.465 152.554 88.6249 149.502 87.237 149.367C85.8491 149.233 84.4391 152.067 84.0876 155.698C83.7361 159.328 84.5762 162.38 85.9641 162.515C87.352 162.649 88.762 159.815 89.1135 156.184Z" fill="black"/>
<path d="M87.2431 149.376C86.8183 153.759 86.3935 158.141 85.9688 162.524C90.1168 162.178 95.4221 161.333 101.318 159.338C108.735 156.829 114.415 153.404 118.298 150.623C119.611 149.649 127.723 143.425 128.49 132.628C128.941 126.279 126.633 121.417 125.45 119.288C124.725 115.847 121.258 113.721 118.007 114.559C114.922 115.354 112.919 118.59 113.644 121.845C114.918 123.766 117.167 127.852 116.183 132.394C115.19 136.982 111.436 139.575 106.517 142.973C102.273 145.904 98.4744 147.237 96.7317 147.781C92.9537 148.96 89.6312 149.303 87.2439 149.376H87.2431Z" fill="black"/>
<path d="M113.893 73.9054C114.898 72.7518 116.94 70.757 120.111 69.8174C121.954 69.271 124.686 68.4612 126.546 70.038C128.313 71.536 128.35 74.3864 127.746 76.2259C126.818 79.0553 123.865 81.0449 120.329 81.198" fill="#F5F8E0"/>
<path d="M113.556 73.6119C114.242 72.4779 115.141 71.4542 116.195 70.5806C116.457 70.3607 116.734 70.1558 117.016 69.9577C117.159 69.8616 117.302 69.7633 117.447 69.6695L117.893 69.4001C118.197 69.2312 118.504 69.0638 118.823 68.9182L119.062 68.8072C119.141 68.7704 119.224 68.7396 119.304 68.7058L119.549 68.6068L119.671 68.5572L119.732 68.5325L119.788 68.5115C120.988 68.0627 122.327 67.5531 123.928 67.5396C124.327 67.5396 124.741 67.5726 125.162 67.6611C125.582 67.7474 126.008 67.8878 126.414 68.0859C126.82 68.2841 127.203 68.5407 127.539 68.8387C127.876 69.1366 128.168 69.4789 128.413 69.8399C128.658 70.2016 128.853 70.5836 129.006 70.9694C129.157 71.3559 129.263 71.7469 129.338 72.1349C129.486 72.9109 129.506 73.6742 129.434 74.4164C129.363 75.1594 129.202 75.8829 128.935 76.5967C128.661 77.3104 128.28 77.9738 127.817 78.5547C127.352 79.1349 126.816 79.64 126.229 80.0557C125.646 80.4768 125.015 80.8085 124.365 81.0652C123.063 81.574 121.684 81.7759 120.35 81.6911C120.076 81.6738 119.867 81.4374 119.885 81.1635C119.9 80.9278 120.077 80.7409 120.301 80.7042H120.307C121.503 80.5075 122.642 80.121 123.625 79.5289C124.607 78.9397 125.434 78.1547 125.974 77.2473C126.248 76.7963 126.441 76.3145 126.566 75.8251C126.688 75.332 126.744 74.7962 126.74 74.2746C126.736 73.7522 126.664 73.2389 126.531 72.7788C126.396 72.318 126.194 71.918 125.944 71.6133C125.694 71.3063 125.392 71.0932 125.061 70.9513C124.729 70.808 124.331 70.7217 123.86 70.6962C123.801 70.6939 123.743 70.6894 123.681 70.6887C123.621 70.6864 123.559 70.6857 123.497 70.6864C123.373 70.6842 123.245 70.6879 123.115 70.6947C122.855 70.7097 122.584 70.7307 122.306 70.769C121.748 70.8388 121.166 70.9513 120.55 71.0864L120.129 71.181C120.06 71.1975 119.989 71.2103 119.921 71.2298L119.715 71.2876C119.438 71.3566 119.167 71.4497 118.892 71.539C118.346 71.7251 117.81 71.9578 117.28 72.2197C116.22 72.7458 115.208 73.4205 114.229 74.198L114.225 74.201C114.03 74.3571 113.744 74.3241 113.588 74.1282C113.467 73.9759 113.461 73.7687 113.555 73.6111L113.556 73.6119Z" fill="black"/>
<path d="M73.2497 72.8667L72.5044 71.53L64.2579 76.2507L63.5607 70.4163L62.0566 70.6001L64.2173 88.6963L65.7214 88.5124L64.4545 77.9003L73.2497 72.8667Z" fill="black"/>
<path d="M49.1602 72.0929L49.6187 78.0759C59.8143 71.5008 70.0107 64.9263 80.2063 58.3512C79.9616 55.5398 79.717 52.7291 79.4723 49.9177L73.3107 55.9848L49.1602 72.0922V72.0929Z" fill="black"/>
<path d="M92.3667 182.453C94.7384 182.453 96.661 180.506 96.661 178.103C96.661 175.701 94.7384 173.753 92.3667 173.753C89.9949 173.753 88.0723 175.701 88.0723 178.103C88.0723 180.506 89.9949 182.453 92.3667 182.453Z" fill="#FFFCE8"/>
<path d="M163.345 139.35C165.517 138.384 166.953 136.873 166.554 135.975C166.155 135.077 164.07 135.132 161.899 136.098C159.727 137.064 158.291 138.575 158.69 139.473C159.089 140.371 161.174 140.316 163.345 139.35Z" fill="#FFFCE8"/>
</svg>
